<svg xmlns="http://www.w3.org/2000/svg" width="534.134" height="102" viewBox="0 0 534.134 102">
  <g id="Group_135" data-name="Group 135" transform="translate(-39.685 -39.685)">
    <g id="Group_133" data-name="Group 133" transform="translate(39.685 39.685)">
      <path id="Path_601" data-name="Path 601" d="M48.793,66.644v5.648H53c1.879,0,3.016-1.005,3.016-2.761A2.732,2.732,0,0,0,53,66.644ZM53.023,63.5c3.895,0,6.266,2.4,6.266,5.958s-2.14,5.906-6.29,5.906H48.793v5.621a1.2,1.2,0,0,1-1.239,1.266H46.78a1.232,1.232,0,0,1-1.263-1.266v-16.2a1.247,1.247,0,0,1,1.29-1.29Z" transform="translate(-31.59 -6.633)" fill="#003486"/>
      <path id="Path_602" data-name="Path 602" d="M58.174,74.277H62.4l-2.087-6.187Zm-1.082,3.147-1.524,3.869a1.384,1.384,0,0,1-1.29.955H53.222a.952.952,0,0,1-.927-1.392l6.164-16.274A1.432,1.432,0,0,1,59.927,63.5h.8a1.374,1.374,0,0,1,1.419,1.084l6.214,16.3a.927.927,0,0,1-.924,1.368H66.3a1.336,1.336,0,0,1-1.29-.929l-1.445-3.895Z" transform="translate(-22.313 -6.633)" fill="#003486"/>
      <path id="Path_603" data-name="Path 603" d="M63.882,66.643V71.93h3.845c1.908,0,2.916-1.029,2.916-2.553a2.569,2.569,0,0,0-2.763-2.734ZM74.3,80.544a1.052,1.052,0,0,1-.953,1.7H72.291A1.638,1.638,0,0,1,71,81.552L66.8,75H63.882v6.008a1.168,1.168,0,0,1-1.261,1.237h-.752a1.189,1.189,0,0,1-1.287-1.237V64.764A1.209,1.209,0,0,1,61.869,63.5h6.037c3.663,0,6.111,2.4,6.111,5.777a5.409,5.409,0,0,1-3.787,5.313Z" transform="translate(-10.679 -6.632)" fill="#003486"/>
      <path id="Path_604" data-name="Path 604" d="M69.5,82.248a1.151,1.151,0,0,1-1.239-1.239V64.76A1.2,1.2,0,0,1,69.5,63.5h.747A1.2,1.2,0,0,1,71.49,64.76V79.077h7.429a1.161,1.161,0,0,1,1.237,1.237v.695a1.161,1.161,0,0,1-1.237,1.239Z" transform="translate(-0.016 -6.633)" fill="#003486"/>
      <path id="Path_605" data-name="Path 605" d="M77.782,66.644v4.332h5.8a1.212,1.212,0,0,1,1.29,1.266v.618a1.212,1.212,0,0,1-1.29,1.263h-5.8V79.1H85.8A1.239,1.239,0,0,1,87.1,80.34v.669A1.221,1.221,0,0,1,85.8,82.248H75.8a1.157,1.157,0,0,1-1.266-1.239V64.763A1.178,1.178,0,0,1,75.8,63.5H85.34a1.2,1.2,0,0,1,1.237,1.266v.618a1.214,1.214,0,0,1-1.237,1.263Z" transform="translate(8.684 -6.633)" fill="#003486"/>
      <path id="Path_606" data-name="Path 606" d="M96.093,69.352l-4,8.511a1.331,1.331,0,0,1-1.137.774H89.774a1.249,1.249,0,0,1-1.137-.747L84.59,69.352l.1,11.658a1.149,1.149,0,0,1-1.237,1.239h-.7a1.13,1.13,0,0,1-1.213-1.239V64.76A1.176,1.176,0,0,1,82.758,63.5H84.1a1.311,1.311,0,0,1,1.187.747L90.34,74.613l5.108-10.4a1.271,1.271,0,0,1,1.213-.721h1.287a1.181,1.181,0,0,1,1.239,1.263V81.011a1.171,1.171,0,0,1-1.266,1.239h-.7a1.129,1.129,0,0,1-1.211-1.239Z" transform="translate(18.418 -6.633)" fill="#003486"/>
      <path id="Path_607" data-name="Path 607" d="M94.456,66.644v4.332h5.8a1.212,1.212,0,0,1,1.29,1.266v.618a1.212,1.212,0,0,1-1.29,1.263h-5.8V79.1h8.021a1.239,1.239,0,0,1,1.292,1.239v.669a1.221,1.221,0,0,1-1.292,1.239H92.472a1.157,1.157,0,0,1-1.266-1.239V64.763A1.178,1.178,0,0,1,92.472,63.5h9.543a1.2,1.2,0,0,1,1.237,1.266v.618a1.214,1.214,0,0,1-1.237,1.263Z" transform="translate(31.828 -6.633)" fill="#003486"/>
      <path id="Path_608" data-name="Path 608" d="M98.187,64.761a1.209,1.209,0,0,1,1.29-1.263h1.237a1.47,1.47,0,0,1,1.213.771l6.734,11.969-.029-11.477a1.179,1.179,0,0,1,1.213-1.263h.774a1.168,1.168,0,0,1,1.237,1.263V80.983a1.2,1.2,0,0,1-1.263,1.266h-1.11a1.332,1.332,0,0,1-1.132-.7l-6.966-12.38.053,11.837a1.129,1.129,0,0,1-1.211,1.239h-.8a1.149,1.149,0,0,1-1.239-1.239Z" transform="translate(41.518 -6.632)" fill="#003486"/>
      <path id="Path_609" data-name="Path 609" d="M106.493,66.644a1.188,1.188,0,0,1-1.239-1.263v-.618a1.189,1.189,0,0,1,1.239-1.266h12.1a1.186,1.186,0,0,1,1.237,1.266v.618a1.185,1.185,0,0,1-1.237,1.263h-4.437V81.008a1.2,1.2,0,0,1-1.263,1.239h-.724a1.175,1.175,0,0,1-1.237-1.239V66.644Z" transform="translate(51.327 -6.633)" fill="#003486"/>
      <path id="Path_610" data-name="Path 610" d="M123.723,79.127a2.422,2.422,0,0,0,2.527-2.524,2.522,2.522,0,0,0-2.656-2.558h-4.926v5.082Zm-5.055-8.045h4.1a2.366,2.366,0,0,0,1.574-2.116,2.226,2.226,0,0,0-2.347-2.321h-3.327Zm-2.011,11.166a1.172,1.172,0,0,1-1.266-1.239V64.763a1.191,1.191,0,0,1,1.266-1.266h5.313c3.377,0,5.648,2.166,5.648,5.316a4.2,4.2,0,0,1-1.318,2.861,5.536,5.536,0,0,1-2.5,10.574Z" transform="translate(65.397 -6.633)" fill="#003486"/>
      <path id="Path_611" data-name="Path 611" d="M126.451,66.643V71.93h3.842c1.91,0,2.916-1.029,2.916-2.553a2.567,2.567,0,0,0-2.761-2.734Zm10.421,13.9a1.054,1.054,0,0,1-.955,1.7H134.86a1.626,1.626,0,0,1-1.287-.695L129.365,75h-2.913v6.008a1.168,1.168,0,0,1-1.263,1.237h-.75a1.188,1.188,0,0,1-1.287-1.237V64.764a1.208,1.208,0,0,1,1.287-1.266h6.037c3.663,0,6.111,2.4,6.111,5.777a5.408,5.408,0,0,1-3.79,5.313Z" transform="translate(76.169 -6.632)" fill="#003486"/>
      <path id="Path_612" data-name="Path 612" d="M130.833,75.851V64.761A1.188,1.188,0,0,1,132.1,63.5h.75a1.187,1.187,0,0,1,1.261,1.263V75.9a3.267,3.267,0,0,0,3.561,3.455A3.232,3.232,0,0,0,141.2,75.9V64.761a1.19,1.19,0,0,1,1.266-1.263h.721a1.188,1.188,0,0,1,1.266,1.263v11.09c0,4.076-2.608,6.6-6.784,6.6-4.229,0-6.835-2.5-6.835-6.6" transform="translate(86.831 -6.632)" fill="#003486"/>
      <path id="Path_613" data-name="Path 613" d="M145.779,69.816l3.69-5.648a1.412,1.412,0,0,1,1.187-.671h1.182a1.1,1.1,0,0,1,.881,1.805l-4.953,7.377,5.187,7.787a1.08,1.08,0,0,1-.905,1.781h-1.084a1.32,1.32,0,0,1-1.187-.645l-4-6.087L141.806,81.6a1.384,1.384,0,0,1-1.211.645h-1.082a1.084,1.084,0,0,1-.879-1.805l5.187-7.763L138.895,65.3a1.088,1.088,0,0,1,.85-1.805h1.161a1.412,1.412,0,0,1,1.187.671Z" transform="translate(97.301 -6.633)" fill="#003486"/>
      <path id="Path_614" data-name="Path 614" d="M149.667,66.644v4.332h5.8a1.212,1.212,0,0,1,1.29,1.266v.618a1.212,1.212,0,0,1-1.29,1.263h-5.8V79.1h8.019a1.237,1.237,0,0,1,1.29,1.239v.669a1.219,1.219,0,0,1-1.29,1.239H147.68a1.155,1.155,0,0,1-1.263-1.239V64.763A1.176,1.176,0,0,1,147.68,63.5h9.545a1.2,1.2,0,0,1,1.235,1.266v.618a1.212,1.212,0,0,1-1.235,1.263Z" transform="translate(108.463 -6.633)" fill="#003486"/>
      <path id="Path_615" data-name="Path 615" d="M154.636,82.248a1.151,1.151,0,0,1-1.239-1.239V64.76a1.2,1.2,0,0,1,1.239-1.263h.747a1.2,1.2,0,0,1,1.237,1.263V79.077h7.429a1.161,1.161,0,0,1,1.237,1.237v.695a1.161,1.161,0,0,1-1.237,1.239Z" transform="translate(118.151 -6.633)" fill="#003486"/>
      <path id="Path_616" data-name="Path 616" d="M160.9,82.248a1.151,1.151,0,0,1-1.239-1.239V64.76A1.2,1.2,0,0,1,160.9,63.5h.747a1.2,1.2,0,0,1,1.237,1.263V79.077h7.429a1.161,1.161,0,0,1,1.237,1.237v.695a1.161,1.161,0,0,1-1.237,1.239Z" transform="translate(126.851 -6.633)" fill="#003486"/>
      <path id="Path_617" data-name="Path 617" d="M168.8,73.006c0,3.713,1.676,6.448,4.513,6.448s4.513-2.734,4.513-6.448c0-3.663-1.727-6.55-4.513-6.55s-4.513,2.887-4.513,6.55m-3.25,0c0-5.571,3.121-9.6,7.763-9.6s7.764,4.024,7.764,9.6-3.071,9.569-7.764,9.569-7.763-4-7.763-9.569" transform="translate(135.025 -6.753)" fill="#003486"/>
      <path id="Path_618" data-name="Path 618" d="M174.264,64.736A1.149,1.149,0,0,1,175.5,63.5h.724a1.172,1.172,0,0,1,1.266,1.239v16.3a1.152,1.152,0,0,1-1.266,1.213h-.695a1.164,1.164,0,0,1-1.263-1.213Z" transform="translate(147.115 -6.633)" fill="#003486"/>
      <path id="Path_619" data-name="Path 619" d="M192.133,76.77c0,2.942-2.682,5.805-7.014,5.805-4.15,0-7.224-2.192-7.3-6.5a1.193,1.193,0,0,1,1.211-1.263h.853a1.229,1.229,0,0,1,1.313,1.213c.158,2.321,1.629,3.4,3.924,3.4,2.218,0,3.611-1.158,3.611-2.577,0-1.11-.647-1.832-2.3-2.221-.977-.232-2.037-.516-3.121-.824-2.164-.618-4.692-1.884-4.692-4.953,0-3.482,2.811-5.442,6.4-5.442,3.405,0,6.218,2.09,6.55,5.237a1.125,1.125,0,0,1-1.237,1.313h-.747a1.278,1.278,0,0,1-1.316-1.161c-.153-1.547-1.521-2.345-3.3-2.345s-3.069.953-3.042,2.321c.026,1.134,1.189,1.674,2.453,2.011,1,.284,1.855.492,2.911.747,3.355.774,4.85,2.529,4.85,5.235" transform="translate(152.05 -6.753)" fill="#003486"/>
      <path id="Path_620" data-name="Path 620" d="M53.849,90.089a2.42,2.42,0,0,0,2.527-2.524,2.522,2.522,0,0,0-2.655-2.558H48.793v5.082Zm-5.055-8.045h4.1a2.366,2.366,0,0,0,1.574-2.116,2.226,2.226,0,0,0-2.347-2.321H48.793ZM46.783,93.21a1.17,1.17,0,0,1-1.266-1.239V75.725a1.191,1.191,0,0,1,1.266-1.266H52.1c3.377,0,5.648,2.166,5.648,5.316a4.2,4.2,0,0,1-1.318,2.861,5.536,5.536,0,0,1-2.5,10.574Z" transform="translate(-31.59 8.582)" fill="#003486"/>
      <path id="Path_621" data-name="Path 621" d="M56.577,77.605v5.287H60.42c1.91,0,2.916-1.029,2.916-2.553a2.567,2.567,0,0,0-2.761-2.734ZM67,91.506a1.054,1.054,0,0,1-.955,1.7H64.986a1.623,1.623,0,0,1-1.287-.695l-4.208-6.55H56.577v6.006a1.169,1.169,0,0,1-1.263,1.239h-.75a1.188,1.188,0,0,1-1.287-1.239V75.723a1.207,1.207,0,0,1,1.287-1.263H60.6c3.661,0,6.111,2.4,6.111,5.777a5.408,5.408,0,0,1-3.79,5.313Z" transform="translate(-20.819 8.584)" fill="#003486"/>
      <path id="Path_622" data-name="Path 622" d="M60.96,86.813V75.723a1.188,1.188,0,0,1,1.263-1.263h.75a1.187,1.187,0,0,1,1.261,1.263v11.14a3.266,3.266,0,0,0,3.561,3.458,3.232,3.232,0,0,0,3.532-3.458V75.723a1.19,1.19,0,0,1,1.266-1.263h.721a1.188,1.188,0,0,1,1.266,1.263v11.09c0,4.076-2.608,6.6-6.784,6.6-4.229,0-6.835-2.5-6.835-6.6" transform="translate(-10.155 8.584)" fill="#003486"/>
      <path id="Path_623" data-name="Path 623" d="M82.86,87.733c0,2.94-2.684,5.8-7.014,5.8-4.155,0-7.224-2.192-7.3-6.5a1.193,1.193,0,0,1,1.211-1.263h.853a1.23,1.23,0,0,1,1.313,1.213c.158,2.321,1.624,3.4,3.924,3.4,2.216,0,3.611-1.161,3.611-2.577,0-1.11-.647-1.832-2.3-2.221-.979-.232-2.037-.513-3.121-.824-2.166-.618-4.695-1.884-4.695-4.953,0-3.482,2.811-5.44,6.4-5.44,3.408,0,6.216,2.087,6.553,5.235a1.125,1.125,0,0,1-1.237,1.313h-.747a1.274,1.274,0,0,1-1.316-1.161c-.155-1.547-1.521-2.345-3.3-2.345s-3.069.953-3.042,2.321c.026,1.134,1.184,1.676,2.45,2.011,1,.284,1.858.49,2.913.747,3.353.776,4.85,2.529,4.85,5.237" transform="translate(0.375 8.464)" fill="#003486"/>
      <path id="Path_624" data-name="Path 624" d="M90.371,87.733c0,2.94-2.684,5.8-7.014,5.8-4.155,0-7.224-2.192-7.3-6.5a1.193,1.193,0,0,1,1.211-1.263h.853a1.23,1.23,0,0,1,1.313,1.213c.158,2.321,1.624,3.4,3.924,3.4,2.216,0,3.611-1.161,3.611-2.577,0-1.11-.647-1.832-2.3-2.221-.979-.232-2.037-.513-3.121-.824-2.166-.618-4.695-1.884-4.695-4.953,0-3.482,2.811-5.44,6.4-5.44,3.405,0,6.214,2.087,6.55,5.235a1.125,1.125,0,0,1-1.237,1.313h-.747A1.274,1.274,0,0,1,86.5,79.761c-.155-1.547-1.521-2.345-3.3-2.345s-3.071.953-3.045,2.321c.026,1.134,1.184,1.676,2.45,2.011,1,.284,1.858.49,2.913.747,3.353.776,4.85,2.529,4.85,5.237" transform="translate(10.801 8.464)" fill="#003486"/>
      <path id="Path_625" data-name="Path 625" d="M87.184,77.607v4.332h5.8a1.212,1.212,0,0,1,1.29,1.266v.618a1.211,1.211,0,0,1-1.29,1.263h-5.8v4.977H95.2A1.238,1.238,0,0,1,96.5,91.3v.669A1.221,1.221,0,0,1,95.2,93.211h-10a1.156,1.156,0,0,1-1.266-1.239V75.726A1.176,1.176,0,0,1,85.2,74.46h9.54a1.2,1.2,0,0,1,1.239,1.266v.618a1.215,1.215,0,0,1-1.239,1.263Z" transform="translate(21.734 8.584)" fill="#003486"/>
      <path id="Path_626" data-name="Path 626" d="M92.153,93.211a1.15,1.15,0,0,1-1.239-1.239V75.723a1.2,1.2,0,0,1,1.239-1.263H92.9a1.2,1.2,0,0,1,1.239,1.263V90.037h7.429a1.163,1.163,0,0,1,1.237,1.242v.693a1.161,1.161,0,0,1-1.237,1.239Z" transform="translate(31.423 8.584)" fill="#003486"/>
      <path id="Path_627" data-name="Path 627" d="M111.12,87.733c0,2.94-2.687,5.8-7.016,5.8-4.155,0-7.224-2.192-7.3-6.5a1.193,1.193,0,0,1,1.211-1.263h.853a1.23,1.23,0,0,1,1.313,1.213c.16,2.321,1.624,3.4,3.924,3.4,2.216,0,3.611-1.161,3.611-2.577,0-1.11-.647-1.832-2.3-2.221-.979-.232-2.037-.513-3.121-.824-2.166-.618-4.695-1.884-4.695-4.953,0-3.482,2.811-5.44,6.4-5.44,3.408,0,6.216,2.087,6.553,5.235a1.125,1.125,0,0,1-1.237,1.313h-.747a1.276,1.276,0,0,1-1.316-1.161c-.155-1.547-1.521-2.345-3.3-2.345s-3.071.953-3.045,2.321c.026,1.134,1.184,1.676,2.45,2.011,1,.284,1.858.49,2.913.747,3.353.776,4.853,2.529,4.853,5.237" transform="translate(39.598 8.464)" fill="#003486"/>
      <path id="Path_628" data-name="Path 628" d="M110.671,77.607v5.645h4.205c1.879,0,3.016-1,3.016-2.758a2.732,2.732,0,0,0-3.016-2.887ZM114.9,74.46c3.895,0,6.266,2.4,6.266,5.956s-2.14,5.91-6.29,5.91h-4.205v5.619a1.2,1.2,0,0,1-1.239,1.266h-.774a1.232,1.232,0,0,1-1.263-1.266V75.75a1.247,1.247,0,0,1,1.29-1.29Z" transform="translate(54.299 8.584)" fill="#003486"/>
      <path id="Path_629" data-name="Path 629" d="M120.051,85.24h4.229l-2.087-6.187Zm-1.082,3.147-1.524,3.869a1.384,1.384,0,0,1-1.29.955H115.1a.952.952,0,0,1-.927-1.392l6.164-16.274A1.432,1.432,0,0,1,121.8,74.46h.8a1.374,1.374,0,0,1,1.418,1.084l6.214,16.3a.927.927,0,0,1-.924,1.368h-1.137a1.333,1.333,0,0,1-1.29-.929l-1.445-3.895Z" transform="translate(63.574 8.584)" fill="#003486"/>
      <path id="Path_630" data-name="Path 630" d="M125.759,77.605v5.287H129.6c1.908,0,2.916-1.029,2.916-2.553a2.569,2.569,0,0,0-2.763-2.734Zm10.419,13.9a1.052,1.052,0,0,1-.953,1.7h-1.058a1.638,1.638,0,0,1-1.29-.695l-4.2-6.55h-2.916v6.006a1.168,1.168,0,0,1-1.261,1.239h-.752a1.19,1.19,0,0,1-1.287-1.239V75.723a1.209,1.209,0,0,1,1.287-1.263h6.037c3.663,0,6.111,2.4,6.111,5.777a5.409,5.409,0,0,1-3.787,5.313Z" transform="translate(75.208 8.584)" fill="#003486"/>
      <path id="Path_631" data-name="Path 631" d="M131.38,93.211a1.15,1.15,0,0,1-1.239-1.239V75.723a1.2,1.2,0,0,1,1.239-1.263h.747a1.2,1.2,0,0,1,1.239,1.263V90.037H140.8a1.163,1.163,0,0,1,1.237,1.242v.693a1.161,1.161,0,0,1-1.237,1.239Z" transform="translate(85.871 8.584)" fill="#003486"/>
      <path id="Path_632" data-name="Path 632" d="M139.659,77.607v4.332h5.8a1.21,1.21,0,0,1,1.29,1.266v.618a1.21,1.21,0,0,1-1.29,1.263h-5.8v4.977h8.021a1.238,1.238,0,0,1,1.29,1.239v.669a1.222,1.222,0,0,1-1.29,1.239H137.675a1.157,1.157,0,0,1-1.266-1.239V75.726a1.178,1.178,0,0,1,1.266-1.266h9.543a1.2,1.2,0,0,1,1.235,1.266v.618a1.212,1.212,0,0,1-1.235,1.263Z" transform="translate(94.571 8.584)" fill="#003486"/>
      <path id="Path_633" data-name="Path 633" d="M157.938,80.313l-4,8.513a1.333,1.333,0,0,1-1.137.771h-1.184a1.244,1.244,0,0,1-1.137-.747l-4.05-8.537.1,11.658a1.149,1.149,0,0,1-1.235,1.242h-.7a1.131,1.131,0,0,1-1.213-1.242V75.723A1.175,1.175,0,0,1,144.6,74.46h1.342a1.311,1.311,0,0,1,1.187.747l5.053,10.369,5.108-10.4a1.271,1.271,0,0,1,1.213-.721h1.287a1.179,1.179,0,0,1,1.237,1.263V91.971a1.168,1.168,0,0,1-1.258,1.242h-.7a1.13,1.13,0,0,1-1.211-1.242Z" transform="translate(104.261 8.584)" fill="#003486"/>
      <path id="Path_634" data-name="Path 634" d="M156.3,77.607v4.332h5.8a1.212,1.212,0,0,1,1.29,1.266v.618a1.211,1.211,0,0,1-1.29,1.263h-5.8v4.977h8.019a1.237,1.237,0,0,1,1.29,1.239v.669a1.221,1.221,0,0,1-1.29,1.239H154.314a1.155,1.155,0,0,1-1.263-1.239V75.726a1.176,1.176,0,0,1,1.263-1.266h9.545a1.2,1.2,0,0,1,1.235,1.266v.618a1.212,1.212,0,0,1-1.235,1.263Z" transform="translate(117.671 8.584)" fill="#003486"/>
      <path id="Path_635" data-name="Path 635" d="M160.032,75.723a1.209,1.209,0,0,1,1.29-1.263h1.239a1.473,1.473,0,0,1,1.211.771L170.5,87.2l-.024-11.477a1.179,1.179,0,0,1,1.213-1.263h.774a1.168,1.168,0,0,1,1.237,1.263V91.945a1.2,1.2,0,0,1-1.263,1.266h-1.11a1.34,1.34,0,0,1-1.132-.7l-6.966-12.38.053,11.837a1.129,1.129,0,0,1-1.213,1.239h-.8a1.148,1.148,0,0,1-1.239-1.239Z" transform="translate(127.361 8.584)" fill="#003486"/>
      <path id="Path_636" data-name="Path 636" d="M168.338,77.607a1.186,1.186,0,0,1-1.239-1.263v-.618a1.187,1.187,0,0,1,1.239-1.266h12.1a1.184,1.184,0,0,1,1.235,1.266v.618a1.183,1.183,0,0,1-1.235,1.263H176V91.971a1.2,1.2,0,0,1-1.266,1.239h-.721a1.175,1.175,0,0,1-1.237-1.239V77.607Z" transform="translate(137.17 8.584)" fill="#003486"/>
      <path id="Path_637" data-name="Path 637" d="M51.714,48.287A11.9,11.9,0,0,0,39.685,60.44c0,7.372,6.827,11.957,12.762,11.957,6.531,0,9.681-2.044,15.183-.934a14.967,14.967,0,0,1,7.783,4.076,1.39,1.39,0,0,0,1.731.272c.478-.315.8-.912.478-2.338a33.607,33.607,0,0,0-4.575-10.209c-4.033-6.23-12.22-14.978-21.332-14.978" transform="translate(-39.685 -27.745)" fill="#003486"/>
      <path id="Path_638" data-name="Path 638" d="M83.236,48.287A11.9,11.9,0,0,1,95.262,60.44c0,7.372-6.825,11.957-12.762,11.957-6.529,0-9.679-2.044-15.181-.934a14.967,14.967,0,0,0-7.783,4.076,1.39,1.39,0,0,1-1.731.272c-.48-.315-.8-.912-.48-2.338A33.724,33.724,0,0,1,61.9,63.265c4.036-6.23,12.22-14.978,21.335-14.978" transform="translate(-15.378 -27.745)" fill="#003486"/>
      <path id="Path_639" data-name="Path 639" d="M75.421,39.685A9.559,9.559,0,0,0,67.7,43.169a9.554,9.554,0,0,0-7.721-3.484,11.728,11.728,0,0,0-11.7,11.9,12.3,12.3,0,0,0,2.367,7.071,31.457,31.457,0,0,0,5.617,5.789A35.9,35.9,0,0,1,66.29,77.418a1.46,1.46,0,0,0,2.82,0A35.9,35.9,0,0,1,79.135,64.449a31.378,31.378,0,0,0,5.617-5.789,12.3,12.3,0,0,0,2.367-7.071,11.726,11.726,0,0,0-11.7-11.9" transform="translate(-27.756 -39.685)" fill="#7d7e7f"/>
      <path id="Path_640" data-name="Path 640" d="M73.065,41.143a8.256,8.256,0,0,0-7.439,5.22,8.252,8.252,0,0,0-7.436-5.22,8.479,8.479,0,0,0-8.418,8.5,8.081,8.081,0,0,0,1.676,4.845c4.236,5.791,9.989,7.649,14.178,16.719,4.189-9.07,9.941-10.928,14.178-16.719a8.081,8.081,0,0,0,1.676-4.845,8.479,8.479,0,0,0-8.415-8.5" transform="translate(-25.684 -37.661)" fill="#ffe000"/>
      <path id="Path_641" data-name="Path 641" d="M51.714,48.287A11.9,11.9,0,0,0,39.685,60.44c0,7.372,6.827,11.957,12.762,11.957,6.531,0,9.681-2.044,15.183-.934a14.967,14.967,0,0,1,7.783,4.076,1.39,1.39,0,0,0,1.731.272c.478-.315.8-.912.478-2.338a33.607,33.607,0,0,0-4.575-10.209c-4.033-6.23-12.22-14.978-21.332-14.978" transform="translate(-39.685 -27.745)" fill="#003486"/>
      <path id="Path_642" data-name="Path 642" d="M83.236,48.287A11.9,11.9,0,0,1,95.262,60.44c0,7.372-6.825,11.957-12.762,11.957-6.529,0-9.679-2.044-15.181-.934a14.967,14.967,0,0,0-7.783,4.076,1.39,1.39,0,0,1-1.731.272c-.48-.315-.8-.912-.48-2.338A33.724,33.724,0,0,1,61.9,63.265c4.036-6.23,12.22-14.978,21.335-14.978" transform="translate(-15.378 -27.745)" fill="#003486"/>
      <path id="Path_643" data-name="Path 643" d="M75.421,39.685A9.559,9.559,0,0,0,67.7,43.169a9.554,9.554,0,0,0-7.721-3.484,11.728,11.728,0,0,0-11.7,11.9,12.3,12.3,0,0,0,2.367,7.071,31.457,31.457,0,0,0,5.617,5.789A35.9,35.9,0,0,1,66.29,77.418a1.46,1.46,0,0,0,2.82,0A35.9,35.9,0,0,1,79.135,64.449a31.378,31.378,0,0,0,5.617-5.789,12.3,12.3,0,0,0,2.367-7.071,11.726,11.726,0,0,0-11.7-11.9" transform="translate(-27.756 -39.685)" fill="#7d7e7f"/>
      <path id="Path_644" data-name="Path 644" d="M73.065,41.143a8.256,8.256,0,0,0-7.439,5.22,8.252,8.252,0,0,0-7.436-5.22,8.479,8.479,0,0,0-8.418,8.5,8.081,8.081,0,0,0,1.676,4.845c4.236,5.791,9.989,7.649,14.178,16.719,4.189-9.07,9.941-10.928,14.178-16.719a8.081,8.081,0,0,0,1.676-4.845,8.479,8.479,0,0,0-8.415-8.5" transform="translate(-25.684 -37.661)" fill="#ffe000"/>
    </g>
  </g>
</svg>
