<svg xmlns="http://www.w3.org/2000/svg" width="192.928" height="51.161" viewBox="0 0 192.928 51.161"><path d="M2.208-.576a.651.651,0,0,1-.18.45.6.6,0,0,1-.468.2.6.6,0,0,1-.468-.2.651.651,0,0,1-.18-.45.651.651,0,0,1,.18-.45.6.6,0,0,1,.468-.2.6.6,0,0,1,.468.2A.651.651,0,0,1,2.208-.576ZM8.244-4.332a1.549,1.549,0,0,0-.594-.534,1.756,1.756,0,0,0-.846-.21,2.185,2.185,0,0,0-.888.174,2.009,2.009,0,0,0-.678.48,2.11,2.11,0,0,0-.432.72,2.605,2.605,0,0,0-.15.894,2.555,2.555,0,0,0,.15.888,2.174,2.174,0,0,0,.426.714,1.947,1.947,0,0,0,.672.48,2.185,2.185,0,0,0,.888.174,1.874,1.874,0,0,0,.912-.2,1.866,1.866,0,0,0,.612-.528l.612.456a2.675,2.675,0,0,1-.882.708A2.751,2.751,0,0,1,6.792.144,3.286,3.286,0,0,1,5.556-.078,2.737,2.737,0,0,1,4.614-.7a2.8,2.8,0,0,1-.606-.936,3.138,3.138,0,0,1-.216-1.176,3.138,3.138,0,0,1,.216-1.176,2.8,2.8,0,0,1,.606-.936,2.737,2.737,0,0,1,.942-.618A3.286,3.286,0,0,1,6.792-5.76a2.929,2.929,0,0,1,1.146.246,2.244,2.244,0,0,1,.942.726ZM15.78-2.808a3.063,3.063,0,0,1-.222,1.176A2.829,2.829,0,0,1,14.94-.7a2.8,2.8,0,0,1-.948.618A3.219,3.219,0,0,1,12.78.144a3.186,3.186,0,0,1-1.2-.222A2.8,2.8,0,0,1,10.632-.7a2.829,2.829,0,0,1-.618-.936,3.063,3.063,0,0,1-.222-1.176,3.063,3.063,0,0,1,.222-1.176,2.829,2.829,0,0,1,.618-.936,2.8,2.8,0,0,1,.948-.618,3.186,3.186,0,0,1,1.2-.222,3.219,3.219,0,0,1,1.212.222,2.8,2.8,0,0,1,.948.618,2.829,2.829,0,0,1,.618.936A3.063,3.063,0,0,1,15.78-2.808Zm-.864,0a2.569,2.569,0,0,0-.15-.882,2.161,2.161,0,0,0-.426-.72,2.016,2.016,0,0,0-.672-.486,2.122,2.122,0,0,0-.888-.18,2.081,2.081,0,0,0-.882.18,2.032,2.032,0,0,0-.666.486,2.161,2.161,0,0,0-.426.72,2.569,2.569,0,0,0-.15.882,2.569,2.569,0,0,0,.15.882,2.161,2.161,0,0,0,.426.72,1.961,1.961,0,0,0,.666.48,2.143,2.143,0,0,0,.882.174,2.185,2.185,0,0,0,.888-.174,1.947,1.947,0,0,0,.672-.48,2.161,2.161,0,0,0,.426-.72A2.569,2.569,0,0,0,14.916-2.808Zm3.42-1.848a1.91,1.91,0,0,1,.738-.8,2.078,2.078,0,0,1,1.11-.306,2.475,2.475,0,0,1,.474.048,1.512,1.512,0,0,1,.48.186,1.754,1.754,0,0,1,.432.366,2.052,2.052,0,0,1,.342.588,2.115,2.115,0,0,1,.786-.882A2.213,2.213,0,0,1,23.88-5.76a1.973,1.973,0,0,1,1.6.636,2.526,2.526,0,0,1,.534,1.68V0H25.2V-3.108a2.715,2.715,0,0,0-.33-1.428,1.209,1.209,0,0,0-1.122-.54A1.456,1.456,0,0,0,23-4.9a1.432,1.432,0,0,0-.492.474,2.1,2.1,0,0,0-.27.666,3.476,3.476,0,0,0-.084.768V0h-.816V-3.276a4.247,4.247,0,0,0-.06-.744,1.552,1.552,0,0,0-.21-.57.982.982,0,0,0-.414-.36,1.562,1.562,0,0,0-.672-.126,1.412,1.412,0,0,0-.582.132,1.524,1.524,0,0,0-.528.4,2.07,2.07,0,0,0-.378.684,2.982,2.982,0,0,0-.144.978V0h-.816V-4.38q0-.228-.012-.588t-.036-.648h.78q.024.228.036.5t.012.456Zm10.6,0a1.91,1.91,0,0,1,.738-.8,2.078,2.078,0,0,1,1.11-.306,2.475,2.475,0,0,1,.474.048,1.512,1.512,0,0,1,.48.186,1.754,1.754,0,0,1,.432.366,2.052,2.052,0,0,1,.342.588,2.115,2.115,0,0,1,.786-.882,2.213,2.213,0,0,1,1.182-.306,1.973,1.973,0,0,1,1.6.636,2.526,2.526,0,0,1,.534,1.68V0H35.8V-3.108a2.715,2.715,0,0,0-.33-1.428,1.209,1.209,0,0,0-1.122-.54,1.456,1.456,0,0,0-.75.18,1.432,1.432,0,0,0-.492.474,2.1,2.1,0,0,0-.27.666,3.476,3.476,0,0,0-.084.768V0h-.816V-3.276a4.247,4.247,0,0,0-.06-.744,1.552,1.552,0,0,0-.21-.57.982.982,0,0,0-.414-.36,1.562,1.562,0,0,0-.672-.126,1.412,1.412,0,0,0-.582.132,1.524,1.524,0,0,0-.528.4,2.07,2.07,0,0,0-.378.684,2.982,2.982,0,0,0-.144.978V0h-.816V-4.38q0-.228-.012-.588t-.036-.648h.78q.024.228.036.5t.012.456Z" transform="translate(156.316 19.996)" fill="#ddd"/><g transform="translate(57.018 9.092)"><path d="M3.85,5.28H1.782V-10.428H3.806V-8.8h.066a3.853,3.853,0,0,1,1.481-1.375,4.625,4.625,0,0,1,2.272-.539,5.224,5.224,0,0,1,2.118.418A4.879,4.879,0,0,1,11.388-9.13a5.247,5.247,0,0,1,1.064,1.749,6.091,6.091,0,0,1,.373,2.145,6.182,6.182,0,0,1-.373,2.156A5.319,5.319,0,0,1,11.4-1.32,4.864,4.864,0,0,1,9.754-.143,5.3,5.3,0,0,1,7.581.286,4.724,4.724,0,0,1,5.474-.2,3.816,3.816,0,0,1,3.916-1.562H3.85ZM10.714-5.236a4.558,4.558,0,0,0-.22-1.408,3.592,3.592,0,0,0-.66-1.21A3.16,3.16,0,0,0,8.745-8.69,3.478,3.478,0,0,0,7.238-9,3.318,3.318,0,0,0,5.8-8.69a3.39,3.39,0,0,0-1.111.836,3.856,3.856,0,0,0-.715,1.21,4.078,4.078,0,0,0-.253,1.43,4.078,4.078,0,0,0,.253,1.43,3.723,3.723,0,0,0,.715,1.2A3.463,3.463,0,0,0,5.8-1.76a3.318,3.318,0,0,0,1.441.308,3.376,3.376,0,0,0,1.507-.319,3.281,3.281,0,0,0,1.089-.847,3.592,3.592,0,0,0,.66-1.21A4.558,4.558,0,0,0,10.714-5.236ZM22.22-6.754a2.075,2.075,0,0,0-.7-1.727,2.914,2.914,0,0,0-1.87-.561,4.106,4.106,0,0,0-1.661.341,4.206,4.206,0,0,0-1.309.869l-1.1-1.32A5.554,5.554,0,0,1,17.457-10.3a6.723,6.723,0,0,1,2.387-.418,5.39,5.39,0,0,1,1.947.319,3.682,3.682,0,0,1,1.353.869,3.56,3.56,0,0,1,.792,1.3A4.791,4.791,0,0,1,24.2-6.622v4.554q0,.528.033,1.111A5.707,5.707,0,0,0,24.354,0h-1.87a6.512,6.512,0,0,1-.176-1.5h-.066A4,4,0,0,1,20.8-.2a4.323,4.323,0,0,1-2.057.462A5.388,5.388,0,0,1,17.457.1,3.74,3.74,0,0,1,16.236-.44a3.044,3.044,0,0,1-.913-.99,2.945,2.945,0,0,1-.363-1.518A2.669,2.669,0,0,1,15.6-4.829,4.042,4.042,0,0,1,17.27-5.885,9.443,9.443,0,0,1,19.6-6.358q1.3-.11,2.618-.11Zm-.506,1.782q-.77,0-1.6.066a7.367,7.367,0,0,0-1.5.264,2.829,2.829,0,0,0-1.111.594,1.351,1.351,0,0,0-.44,1.056,1.461,1.461,0,0,0,.187.77,1.553,1.553,0,0,0,.495.506,1.992,1.992,0,0,0,.682.275,3.809,3.809,0,0,0,.77.077,2.847,2.847,0,0,0,2.233-.869,3.152,3.152,0,0,0,.781-2.189v-.55Zm5.94-3.212q0-.418-.022-1.078t-.066-1.166h1.958q.044.4.066.913t.022.847h.066a3.609,3.609,0,0,1,1.287-1.485,3.37,3.37,0,0,1,1.9-.561,3.21,3.21,0,0,1,.814.088l-.088,1.914a3.892,3.892,0,0,0-.946-.11,2.87,2.87,0,0,0-1.3.275,2.65,2.65,0,0,0-.913.737A3.116,3.116,0,0,0,29.9-6.743a4.506,4.506,0,0,0-.176,1.265V0H27.654ZM37.708,0H35.64V-10.428h2.068Zm.33-14.19a1.234,1.234,0,0,1-.4.946,1.379,1.379,0,0,1-.971.374,1.32,1.32,0,0,1-.96-.385,1.26,1.26,0,0,1-.393-.935,1.286,1.286,0,0,1,.393-.957,1.32,1.32,0,0,1,.96-.385,1.357,1.357,0,0,1,.971.385A1.269,1.269,0,0,1,38.038-14.19Zm8.91,6.4a2.7,2.7,0,0,0-.99-.935,2.84,2.84,0,0,0-1.43-.363,3.286,3.286,0,0,0-.7.077,2.068,2.068,0,0,0-.627.242,1.337,1.337,0,0,0-.44.418,1.124,1.124,0,0,0-.165.627,1.043,1.043,0,0,0,.594.979,7.29,7.29,0,0,0,1.782.583,11.038,11.038,0,0,1,1.386.418,4.339,4.339,0,0,1,1.111.605,2.608,2.608,0,0,1,.737.869,2.534,2.534,0,0,1,.264,1.188,3.194,3.194,0,0,1-.352,1.562,3.055,3.055,0,0,1-.935,1.045A3.834,3.834,0,0,1,45.848.11a6.7,6.7,0,0,1-1.54.176,6.1,6.1,0,0,1-2.321-.462,4.542,4.542,0,0,1-1.881-1.408L41.58-2.838A3.376,3.376,0,0,0,42.735-1.8a3.221,3.221,0,0,0,1.617.418,3.649,3.649,0,0,0,.759-.077,2.166,2.166,0,0,0,.66-.253,1.359,1.359,0,0,0,.473-.462A1.365,1.365,0,0,0,46.42-2.9a1.144,1.144,0,0,0-.693-1.078,9.3,9.3,0,0,0-2.035-.66q-.528-.132-1.067-.319a3.57,3.57,0,0,1-.979-.517,2.589,2.589,0,0,1-.715-.825,2.485,2.485,0,0,1-.275-1.221A2.889,2.889,0,0,1,41-8.965a2.97,2.97,0,0,1,.891-.99,3.921,3.921,0,0,1,1.254-.572,5.632,5.632,0,0,1,1.452-.187,5.531,5.531,0,0,1,2.167.44A3.585,3.585,0,0,1,48.378-9Zm18.5-.044A7.67,7.67,0,0,1,64.691-4.3a7.118,7.118,0,0,1-2,2.442A8.347,8.347,0,0,1,59.884-.451,11.366,11.366,0,0,1,56.716,0H50.908V-15.576H56.54a13.919,13.919,0,0,1,3.256.385,8.172,8.172,0,0,1,2.86,1.276,6.532,6.532,0,0,1,2.024,2.387A8.015,8.015,0,0,1,65.45-7.832Zm-3.916,0a4.932,4.932,0,0,0-.429-2.189,3.685,3.685,0,0,0-1.144-1.386,4.576,4.576,0,0,0-1.628-.737,8,8,0,0,0-1.881-.22h-1.87v9.108h1.782a8.089,8.089,0,0,0,1.947-.231,4.6,4.6,0,0,0,1.65-.759A3.76,3.76,0,0,0,61.1-5.654,4.948,4.948,0,0,0,61.534-7.832Zm22.638-.022a8.686,8.686,0,0,1-.638,3.377,7.689,7.689,0,0,1-1.771,2.618A7.88,7.88,0,0,1,79.068-.176,9.454,9.454,0,0,1,75.68.418,9.365,9.365,0,0,1,72.3-.176a7.9,7.9,0,0,1-2.684-1.683,7.689,7.689,0,0,1-1.771-2.618,8.686,8.686,0,0,1-.638-3.377,8.583,8.583,0,0,1,.638-3.377,7.394,7.394,0,0,1,1.771-2.563A7.89,7.89,0,0,1,72.3-15.422a9.688,9.688,0,0,1,3.377-.572,9.78,9.78,0,0,1,3.388.572,7.869,7.869,0,0,1,2.695,1.628,7.394,7.394,0,0,1,1.771,2.563A8.583,8.583,0,0,1,84.172-7.854Zm-4.026,0a5.345,5.345,0,0,0-.33-1.892,4.508,4.508,0,0,0-.913-1.507,4.215,4.215,0,0,0-1.408-.99,4.457,4.457,0,0,0-1.815-.363,4.38,4.38,0,0,0-1.8.363,4.368,4.368,0,0,0-1.408.99,4.282,4.282,0,0,0-.913,1.507,5.51,5.51,0,0,0-.319,1.892,5.565,5.565,0,0,0,.33,1.947,4.611,4.611,0,0,0,.913,1.529,4.169,4.169,0,0,0,1.4,1,4.38,4.38,0,0,0,1.8.363,4.38,4.38,0,0,0,1.8-.363,4.288,4.288,0,0,0,1.408-1,4.515,4.515,0,0,0,.924-1.529A5.565,5.565,0,0,0,80.146-7.854Zm12.518-4.51V0H88.9V-12.364H84.5v-3.212H97.064v3.212Z" transform="translate(0 22)" fill="#fff"/></g><path d="M25.2,25.3V60.459H60.119V25.3ZM42.66,59.607A16.728,16.728,0,1,1,59.273,42.88,16.659,16.659,0,0,1,42.66,59.607Z" transform="translate(-17.301 -17.315)" fill="#fff"/><g transform="translate(0.188)"><path d="M.6,0V6.659H3.923A3.33,3.33,0,1,1,7.245,3.345,3.316,3.316,0,0,1,3.923,6.691H7.245V0Z" transform="translate(-0.6)" fill="#fff"/><path d="M5.982,3A2.4,2.4,0,1,0,8.365,5.4,2.389,2.389,0,0,0,5.982,3Z" transform="translate(-2.66 -2.053)" fill="#fff"/></g><g transform="translate(0 8.9)"><path d="M0,28.2v6.659H3.323a3.33,3.33,0,1,1,0,.032H6.645V28.2Z" transform="translate(0 -28.2)" fill="#fff"/><path d="M5.382,31.1a2.4,2.4,0,1,0,2.382,2.4A2.389,2.389,0,0,0,5.382,31.1Z" transform="translate(-2.06 -30.185)" fill="#fff"/><path d="M0,62.991H3.323a3.346,3.346,0,1,1,3.323-3.346,3.316,3.316,0,0,1-3.323,3.346H6.645V56.332H0Z" transform="translate(0 -47.431)" fill="#fff"/><path d="M5.382,59.3a2.4,2.4,0,1,0,2.382,2.4A2.389,2.389,0,0,0,5.382,59.3Z" transform="translate(-2.06 -49.484)" fill="#fff"/><path d="M0,91.191H3.323a3.346,3.346,0,1,1,3.323-3.346,3.336,3.336,0,0,1-3.323,3.346H6.645V84.532H0Z" transform="translate(0 -66.731)" fill="#fff"/><path d="M5.382,87.5a2.4,2.4,0,1,0,2.382,2.4A2.389,2.389,0,0,0,5.382,87.5Z" transform="translate(-2.06 -68.784)" fill="#fff"/><path d="M0,119.359H3.323a3.33,3.33,0,1,1,0,.032H6.645v-6.659H0v6.628Z" transform="translate(0 -86.031)" fill="#fff"/><path d="M5.382,115.7a2.4,2.4,0,1,0,2.382,2.4A2.389,2.389,0,0,0,5.382,115.7Z" transform="translate(-2.06 -88.084)" fill="#fff"/></g><g transform="translate(17.742)"><path d="M56.6,0V3.345a3.323,3.323,0,1,1,6.645,0,3.323,3.323,0,1,1-6.645,0V6.691h6.614V0Z" transform="translate(-56.6)" fill="#fff"/><path d="M61.982,7.8A2.4,2.4,0,1,0,59.6,5.4,2.389,2.389,0,0,0,61.982,7.8Z" transform="translate(-58.66 -2.053)" fill="#fff"/></g><g transform="translate(8.965)"><path d="M28.6,0V3.345a3.323,3.323,0,1,1,6.645,0,3.323,3.323,0,1,1-6.645,0V6.691h6.614V0Z" transform="translate(-28.6)" fill="#fff"/><path d="M33.982,7.8A2.4,2.4,0,1,0,31.6,5.4,2.389,2.389,0,0,0,33.982,7.8Z" transform="translate(-30.66 -2.053)" fill="#fff"/></g><g transform="translate(0.188 44.438)"><path d="M.6,147.491H3.923a3.346,3.346,0,1,1,3.323-3.346,3.336,3.336,0,0,1-3.323,3.346H7.245v-6.659H.6Z" transform="translate(-0.6 -140.8)" fill="#fff"/><path d="M5.982,143.8a2.4,2.4,0,1,0,2.382,2.4,2.389,2.389,0,0,0-2.382-2.4Z" transform="translate(-2.66 -142.853)" fill="#fff"/><path d="M112.6,140.9v3.345a3.323,3.323,0,1,1,3.323,3.345,3.336,3.336,0,0,1-3.323-3.345v3.345h6.614v-6.659H112.6Z" transform="translate(-77.492 -140.868)" fill="#fff"/><path d="M117.982,148.6a2.4,2.4,0,1,0-2.382-2.4,2.389,2.389,0,0,0,2.382,2.4Z" transform="translate(-79.552 -142.853)" fill="#fff"/><path d="M84.6,144.145a3.323,3.323,0,1,1,3.323,3.346,3.336,3.336,0,0,1-3.323-3.346v3.346h6.614v-6.659H84.6v3.314Z" transform="translate(-58.269 -140.8)" fill="#fff"/><path d="M89.982,148.6a2.4,2.4,0,1,0-2.382-2.4A2.389,2.389,0,0,0,89.982,148.6Z" transform="translate(-60.329 -142.853)" fill="#fff"/><path d="M56.6,144.145a3.323,3.323,0,1,1,3.323,3.346,3.336,3.336,0,0,1-3.323-3.346v3.346h6.614v-6.659H56.6v3.314Z" transform="translate(-39.046 -140.8)" fill="#fff"/><path d="M61.982,148.6a2.4,2.4,0,1,0-2.382-2.4A2.389,2.389,0,0,0,61.982,148.6Z" transform="translate(-41.106 -142.853)" fill="#fff"/><path d="M28.6,144.145a3.323,3.323,0,1,1,3.323,3.346,3.336,3.336,0,0,1-3.323-3.346v3.346h6.614v-6.659H28.6v3.314Z" transform="translate(-19.823 -140.8)" fill="#fff"/><path d="M33.982,148.6a2.4,2.4,0,1,0-2.382-2.4A2.389,2.389,0,0,0,33.982,148.6Z" transform="translate(-21.883 -142.853)" fill="#fff"/></g><g transform="translate(26.519)"><path d="M112.6,3.345a3.323,3.323,0,1,1,6.645,0,3.323,3.323,0,1,1-6.645,0V6.691h6.614V0H112.6V3.345Z" transform="translate(-103.823)" fill="#fff"/><path d="M117.982,7.8A2.4,2.4,0,1,0,115.6,5.4a2.389,2.389,0,0,0,2.382,2.4Z" transform="translate(-105.883 -2.053)" fill="#fff"/><path d="M84.6,3.345a3.323,3.323,0,1,1,6.645,0,3.323,3.323,0,1,1-6.645,0V6.691h6.614V0H84.6Z" transform="translate(-84.6)" fill="#fff"/><path d="M89.982,7.8A2.4,2.4,0,1,0,87.6,5.4,2.389,2.389,0,0,0,89.982,7.8Z" transform="translate(-86.66 -2.053)" fill="#fff"/><path d="M140.6,0V6.659h3.323a3.33,3.33,0,1,1,3.323-3.314,3.316,3.316,0,0,1-3.323,3.345h3.323V0h-6.614Z" transform="translate(-123.046)" fill="#fff"/><path d="M145.982,3a2.4,2.4,0,1,0,2.382,2.4A2.389,2.389,0,0,0,145.982,3Z" transform="translate(-125.106 -2.053)" fill="#fff"/></g><g transform="translate(43.884 8.9)"><path d="M140,31.545a3.323,3.323,0,1,1,3.323,3.346h3.323V28.2h-6.614v6.659h3.323a3.336,3.336,0,0,1-3.323-3.345Z" transform="translate(-140 -28.2)" fill="#fff"/><path d="M145.382,31.1a2.4,2.4,0,1,0,2.382,2.4A2.389,2.389,0,0,0,145.382,31.1Z" transform="translate(-142.06 -30.185)" fill="#fff"/><path d="M140,59.645a3.323,3.323,0,1,1,3.323,3.346h3.323V56.332h-6.614v6.659h3.323a3.336,3.336,0,0,1-3.323-3.346Z" transform="translate(-140 -47.431)" fill="#fff"/><path d="M145.382,59.3a2.4,2.4,0,1,0,2.382,2.4A2.389,2.389,0,0,0,145.382,59.3Z" transform="translate(-142.06 -49.484)" fill="#fff"/><path d="M140,87.845a3.323,3.323,0,1,1,3.323,3.346h3.323V84.532h-6.614v6.659h3.323a3.336,3.336,0,0,1-3.323-3.346Z" transform="translate(-140 -66.731)" fill="#fff"/><path d="M145.382,87.5a2.4,2.4,0,1,0,2.382,2.4A2.389,2.389,0,0,0,145.382,87.5Z" transform="translate(-142.06 -68.784)" fill="#fff"/><path d="M140,116.045a3.323,3.323,0,1,1,3.323,3.345h3.323v-6.659h-6.614v6.659h3.323a3.336,3.336,0,0,1-3.323-3.345Z" transform="translate(-140 -86.031)" fill="#fff"/><path d="M145.382,115.7a2.4,2.4,0,1,0,2.382,2.4A2.389,2.389,0,0,0,145.382,115.7Z" transform="translate(-142.06 -88.084)" fill="#fff"/><path d="M140.6,140.832v6.659h3.323a3.346,3.346,0,1,1,3.323-3.346,3.336,3.336,0,0,1-3.323,3.346h3.323v-6.659H140.6Z" transform="translate(-140.412 -105.262)" fill="#fff"/><path d="M145.982,143.8a2.4,2.4,0,1,0,2.382,2.4A2.389,2.389,0,0,0,145.982,143.8Z" transform="translate(-142.472 -107.315)" fill="#fff"/></g><g transform="translate(12.989 12.876)"><ellipse cx="4.329" cy="2.519" rx="4.329" ry="2.519" transform="translate(11.332 20.984) rotate(-25)" fill="#fff"/><ellipse cx="4.329" cy="2.519" rx="4.329" ry="2.519" transform="translate(3.32 3.674) rotate(-25)" fill="#fff"/><ellipse cx="2.519" cy="4.336" rx="2.519" ry="4.336" transform="matrix(0.574, -0.819, 0.819, 0.574, 12.769, 4.492)" fill="#fff"/><ellipse cx="4.354" cy="2.505" rx="4.354" ry="2.505" transform="translate(0 16.064) rotate(-85)" fill="#fff"/><ellipse cx="4.354" cy="2.505" rx="4.354" ry="2.505" transform="translate(18.916 17.734) rotate(-85)" fill="#fff"/><ellipse cx="2.519" cy="4.336" rx="2.519" ry="4.336" transform="matrix(0.574, -0.819, 0.819, 0.574, 1.944, 20.162)" fill="#fff"/></g></svg>