<svg id="Component_83_3" data-name="Component 83 – 3" xmlns="http://www.w3.org/2000/svg" width="211.166" height="51.161" viewBox="0 0 211.166 51.161">
  <g id="logog_paris" data-name="logog paris" transform="translate(0.518 0.937)">
    <g id="lopgooo">
      <g id="Component_166_2" data-name="Component 166 – 2">
        <g id="Group_183" data-name="Group 183" transform="translate(12.639 12.365)">
          <ellipse id="Ellipse_5238" data-name="Ellipse 5238" cx="4.205" cy="2.429" rx="4.205" ry="2.429" transform="translate(11.027 20.171) rotate(-25)" fill="#fff"/>
          <ellipse id="Ellipse_5239" data-name="Ellipse 5239" cx="4.205" cy="2.429" rx="4.205" ry="2.429" transform="translate(3.23 3.537) rotate(-25)" fill="#fff"/>
          <ellipse id="Ellipse_5240" data-name="Ellipse 5240" cx="2.431" cy="4.201" rx="2.431" ry="4.201" transform="matrix(0.574, -0.819, 0.819, 0.574, 12.425, 4.323)" fill="#fff"/>
          <ellipse id="Ellipse_5241" data-name="Ellipse 5241" cx="4.186" cy="2.442" rx="4.186" ry="2.442" transform="translate(0 15.443) rotate(-85)" fill="#fff"/>
          <ellipse id="Ellipse_5242" data-name="Ellipse 5242" cx="4.186" cy="2.442" rx="4.186" ry="2.442" transform="translate(18.406 17.048) rotate(-85)" fill="#fff"/>
          <ellipse id="Ellipse_5243" data-name="Ellipse 5243" cx="2.431" cy="4.201" rx="2.431" ry="4.201" transform="matrix(0.574, -0.819, 0.819, 0.574, 1.892, 19.381)" fill="#fff"/>
        </g>
        <g id="Group_174" transform="translate(57.669 12.996)">
          <g id="parisDOT">
            <g id="Group_225" data-name="Group 225" transform="translate(0 0.539)">
              <path id="Path_2291" data-name="Path 2291" d="M2.276,24.939H0V7.711H2.276V9.5h0A4.331,4.331,0,0,1,3.923,8.023,5.2,5.2,0,0,1,6.429,7.4a5.5,5.5,0,0,1,2.352.468,4.973,4.973,0,0,1,1.8,1.247,6.808,6.808,0,0,1,1.176,1.949,5.878,5.878,0,0,1,.392,2.339,7.31,7.31,0,0,1-.392,2.339,5.012,5.012,0,0,1-1.176,1.949,5.153,5.153,0,0,1-1.8,1.329,5.872,5.872,0,0,1-2.428.468A4.757,4.757,0,0,1,4,18.94a4.582,4.582,0,0,1-1.724-1.485h0v7.483ZM9.879,13.4a5.373,5.373,0,0,0-.235-1.559,4.325,4.325,0,0,0-.706-1.326,3.468,3.468,0,0,0-1.176-.936,3.654,3.654,0,0,0-1.647-.312,3.318,3.318,0,0,0-1.568.312,4.778,4.778,0,0,0-1.254.936,3.307,3.307,0,0,0-.785,1.326A5.015,5.015,0,0,0,2.2,13.4a3.473,3.473,0,0,0,.313,1.559A4.558,4.558,0,0,0,3.3,16.285a3.772,3.772,0,0,0,1.254.936,3.528,3.528,0,0,0,1.568.312,3.876,3.876,0,0,0,1.647-.312,3.468,3.468,0,0,0,1.176-.936,4.325,4.325,0,0,0,.706-1.326,5,5,0,0,0,.23-1.559Z" transform="translate(0 -2.17)" fill="#fff"/>
              <path id="Path_2292" data-name="Path 2292" d="M26.661,11.762a2.114,2.114,0,0,0-.784-1.871,3.335,3.335,0,0,0-2.038-.624,3.863,3.863,0,0,0-1.8.39,4.451,4.451,0,0,0-1.411.936L19.37,9.112a5.636,5.636,0,0,1,2.117-1.247A7.674,7.674,0,0,1,24.152,7.4a5.263,5.263,0,0,1,2.117.312,4.05,4.05,0,0,1,1.49.936,3.259,3.259,0,0,1,.863,1.4,6.6,6.6,0,0,1,.313,1.793v6.236a1.977,1.977,0,0,0,.157,1.013H27.053a5.8,5.8,0,0,1-.157-1.637h0a3.862,3.862,0,0,1-1.568,1.4,5.144,5.144,0,0,1-2.276.545,3.3,3.3,0,0,1-1.411-.156,4.171,4.171,0,0,1-1.333-.624,4.567,4.567,0,0,1-1.019-1.092,3.543,3.543,0,0,1,.313-3.742,4.551,4.551,0,0,1,1.882-1.169,12.624,12.624,0,0,1,2.588-.545c.941-.075,1.882-.156,2.9-.156v-.309Zm-.549,1.949H24.388a5.151,5.151,0,0,0-1.647.312,4.7,4.7,0,0,0-1.254.624,1.58,1.58,0,0,0-.47,1.169c0,.468,0,.624.235.858a1.827,1.827,0,0,0,.549.545,2.356,2.356,0,0,0,.784.312c.313,0,.549.075.863.075a3.03,3.03,0,0,0,2.428-.936,3.5,3.5,0,0,0,.863-2.414v-.624H26.19Z" transform="translate(-4.081 -2.167)" fill="#fff"/>
              <path id="Path_2293" data-name="Path 2293" d="M36.376,9.059V7.812h2.2V9.764h0a3.612,3.612,0,0,1,1.411-1.637A3.962,3.962,0,0,1,42.1,7.5c.784,0,.628,0,.863.075v2.1a6.085,6.085,0,0,0-1.176-.156,2.7,2.7,0,0,0-1.411.312,5.03,5.03,0,0,0-1.019.779,4.124,4.124,0,0,0-.628,1.169,4.293,4.293,0,0,0-.157,1.4v6H36.3V9.059Z" transform="translate(-7.839 -2.193)" fill="#fff"/>
              <path id="Path_2294" data-name="Path 2294" d="M50.236,2.1a1.254,1.254,0,0,1-.47,1.013,1.37,1.37,0,0,1-1.1.39,1.706,1.706,0,0,1-1.1-.392A1.369,1.369,0,0,1,47.1,2.1a1.254,1.254,0,0,1,.47-1.013A1.37,1.37,0,0,1,48.67.7a1.706,1.706,0,0,1,1.1.39A1.369,1.369,0,0,1,50.24,2.1Zm-.392,15.591H47.567V6.233h2.276Z" transform="translate(-10.172 -0.691)" fill="#fff"/>
              <path id="Path_2295" data-name="Path 2295" d="M61.505,10.6a2.763,2.763,0,0,0-1.1-1.013,3.583,3.583,0,0,0-1.568-.39,1.769,1.769,0,0,0-.784.075l-.7.228a1.327,1.327,0,0,0-.47.468c-.157.156-.157.39-.157.7a1.243,1.243,0,0,0,.628,1.092,7.221,7.221,0,0,0,1.96.624c.549.156,1.1.312,1.568.468a3.982,3.982,0,0,1,1.254.7,2.191,2.191,0,0,1,.784.936,3.3,3.3,0,0,1,.313,1.326,4.228,4.228,0,0,1-.392,1.715,3.676,3.676,0,0,1-1.02,1.171,3.2,3.2,0,0,1-1.49.624,7.373,7.373,0,0,1-4.312-.39A5.167,5.167,0,0,1,53.9,17.377l1.647-1.4A3.641,3.641,0,0,0,58.6,17.611a2.219,2.219,0,0,0,.863-.075,1.171,1.171,0,0,0,.706-.312,1.827,1.827,0,0,0,.549-.545,1.276,1.276,0,0,0,.157-.779,1.167,1.167,0,0,0-.784-1.169,13.361,13.361,0,0,0-2.276-.7c-.392-.075-.784-.234-1.176-.312a4.8,4.8,0,0,1-1.1-.545,3.124,3.124,0,0,1-.784-.936,2.378,2.378,0,0,1-.313-1.326,3.281,3.281,0,0,1,.392-1.559A2.722,2.722,0,0,1,55.857,8.26a4.586,4.586,0,0,1,1.411-.624A5.462,5.462,0,0,1,58.837,7.4a6.421,6.421,0,0,1,2.428.468,4.048,4.048,0,0,1,1.8,1.4L61.5,10.6Z" transform="translate(-11.64 -2.171)" fill="#fff"/>
            </g>
            <g id="Group_226" data-name="Group 226" transform="translate(54.412)">
              <path id="Path_2296" data-name="Path 2296" d="M69.4.6h6.115a12.56,12.56,0,0,1,3.371.468,10.88,10.88,0,0,1,3.058,1.4,7.274,7.274,0,0,1,2.2,2.65A8.875,8.875,0,0,1,85,9.175a7.918,7.918,0,0,1-3.058,6.548,11.316,11.316,0,0,1-3.058,1.559,12.56,12.56,0,0,1-3.371.468H69.4Zm5.645,14.421A8.137,8.137,0,0,0,77.4,14.71a5.187,5.187,0,0,0,2.117-.936,5.015,5.015,0,0,0,1.572-1.793A6.286,6.286,0,0,0,81.713,9.1a6.4,6.4,0,0,0-.628-2.962,4.434,4.434,0,0,0-1.572-1.793A5.064,5.064,0,0,0,77.4,3.484a12.033,12.033,0,0,0-2.352-.234h-2.59V15.1h2.588Z" transform="translate(-69.4 -0.132)" fill="#fff"/>
              <path id="Path_2297" data-name="Path 2297" d="M92,8.965a9.646,9.646,0,0,1,.706-3.742,8.843,8.843,0,0,1,1.882-2.808,7.9,7.9,0,0,1,2.9-1.79,11.2,11.2,0,0,1,7.37,0,8.939,8.939,0,0,1,2.979,1.79,7.906,7.906,0,0,1,1.96,2.807,9.373,9.373,0,0,1,.706,3.742,8.937,8.937,0,0,1-2.666,6.548,9.815,9.815,0,0,1-13.25,0A7.4,7.4,0,0,1,92.7,12.628,9.256,9.256,0,0,1,92,8.965Zm3.293,0a7.934,7.934,0,0,0,.392,2.494,8.6,8.6,0,0,0,1.176,2.026,6.325,6.325,0,0,0,1.882,1.326,5.872,5.872,0,0,0,2.428.468,6.138,6.138,0,0,0,2.428-.468,6.325,6.325,0,0,0,1.882-1.326,4.781,4.781,0,0,0,1.176-2.026,6.662,6.662,0,0,0,.392-2.494,8.738,8.738,0,0,0-.392-2.494,6.807,6.807,0,0,0-1.176-1.949A6.325,6.325,0,0,0,103.6,3.2a6.549,6.549,0,0,0-4.861,0,6.325,6.325,0,0,0-1.882,1.326A5.013,5.013,0,0,0,95.681,6.47a6.42,6.42,0,0,0-.392,2.494Z" transform="translate(-74.281)" fill="#fff"/>
              <path id="Path_2298" data-name="Path 2298" d="M121.453,3.25H116.2V.6h13.643V3.25H124.59V17.672h-3.058V3.25Z" transform="translate(-79.507 -0.132)" fill="#fff"/>
            </g>
          </g>
        </g>
      </g>
    </g>
    <g id="eee" transform="translate(165.417 13.335)">
      <path id="Path_2498" data-name="Path 2498" d="M1.669,8.33a1,1,0,0,1-.228.6.864.864,0,0,1-.607.226A.864.864,0,0,1,.227,8.93.854.854,0,0,1,0,8.33a1,1,0,0,1,.228-.6A.864.864,0,0,1,.835,7.5a.864.864,0,0,1,.607.226.854.854,0,0,1,.227.6Z" transform="translate(0 -1.766)" fill="#fff"/>
      <path id="Path_2499" data-name="Path 2499" d="M10.367,1.811a1.658,1.658,0,0,0-.759-.679A2.435,2.435,0,0,0,8.546.9a2.062,2.062,0,0,0-1.138.226,3.962,3.962,0,0,0-.835.6,1.808,1.808,0,0,0-.531.905A2.917,2.917,0,0,0,5.89,3.772,2.917,2.917,0,0,0,6.042,4.9a2.606,2.606,0,0,0,.531.9,3.368,3.368,0,0,0,.835.6,2.546,2.546,0,0,0,1.138.226,2.546,2.546,0,0,0,1.138-.226,1.658,1.658,0,0,0,.759-.679l.759.6a3.356,3.356,0,0,1-1.138.9,3.537,3.537,0,0,1-1.593.3,3.751,3.751,0,0,1-1.593-.3,4.08,4.08,0,0,1-1.214-.754,3.283,3.283,0,0,1-.764-1.2,4.853,4.853,0,0,1-.3-1.509,3.361,3.361,0,0,1,.3-1.509,4.05,4.05,0,0,1,.759-1.207A3.307,3.307,0,0,1,6.876.3,4.985,4.985,0,0,1,8.47,0,2.9,2.9,0,0,1,9.912.3a3.651,3.651,0,0,1,1.214.9l-.835.6Z" transform="translate(-1.109 0.075)" fill="#fff"/>
      <path id="Path_2500" data-name="Path 2500" d="M22.388,3.672a3.361,3.361,0,0,1-.3,1.509,4.05,4.05,0,0,1-.759,1.207,3.307,3.307,0,0,1-1.214.754,4.931,4.931,0,0,1-1.518.3,3.414,3.414,0,0,1-1.518-.3,4.08,4.08,0,0,1-1.214-.754A3.283,3.283,0,0,1,15.1,5.181a4.853,4.853,0,0,1-.3-1.509,3.361,3.361,0,0,1,.3-1.509A4.05,4.05,0,0,1,15.862.956,3.307,3.307,0,0,1,17.076.2a4.931,4.931,0,0,1,1.518-.3,3.414,3.414,0,0,1,1.518.3,4.08,4.08,0,0,1,1.214.754,3.283,3.283,0,0,1,.759,1.207,4.853,4.853,0,0,1,.3,1.511Zm-1.062,0a2.917,2.917,0,0,0-.152-1.132,2.606,2.606,0,0,0-.531-.9,3.368,3.368,0,0,0-.835-.6A2.546,2.546,0,0,0,18.67.805a1.94,1.94,0,0,0-1.138.226,3.962,3.962,0,0,0-.835.6,2.606,2.606,0,0,0-.531.9,2.917,2.917,0,0,0-.152,1.132A2.917,2.917,0,0,0,16.166,4.8a2.606,2.606,0,0,0,.531.905,3.368,3.368,0,0,0,.835.6,2.546,2.546,0,0,0,1.138.226A1.94,1.94,0,0,0,19.808,6.3a3.962,3.962,0,0,0,.835-.6,2.606,2.606,0,0,0,.531-.9,2.917,2.917,0,0,0,.152-1.132Z" transform="translate(-3.57 0.1)" fill="#fff"/>
      <path id="Path_2501" data-name="Path 2501" d="M29.7.353a3.153,3.153,0,0,1,1.442-.377h.607c.228,0,.379.151.607.226a3.3,3.3,0,0,1,.531.453,6.627,6.627,0,0,1,.455.754A3.558,3.558,0,0,1,34.326.277,3.223,3.223,0,0,1,35.843-.1a2.577,2.577,0,0,1,2.049.83,3.079,3.079,0,0,1,.683,2.112v4.3H37.513V3.3a3.2,3.2,0,0,0-.455-1.811A1.583,1.583,0,0,0,35.616.8c-.683,0-.683,0-.911.226a4.565,4.565,0,0,0-.607.6,1.576,1.576,0,0,0-.3.83c0,.3-.076.6-.076.981V7.218H32.656V3.069a3.092,3.092,0,0,0-.076-.905,1.336,1.336,0,0,0-.3-.754,1.019,1.019,0,0,0-.531-.453,2.742,2.742,0,0,0-.835-.151,1.375,1.375,0,0,0-.759.151,2.091,2.091,0,0,0-.683.528,1.8,1.8,0,0,0-.455.83,3.11,3.11,0,0,0-.152,1.207V7.143H27.8V.126h.986V1.333h0A2.831,2.831,0,0,1,29.7.353Z" transform="translate(-6.705 0.1)" fill="#fff"/>
      <path id="Path_2502" data-name="Path 2502" d="M47.3.353a3.153,3.153,0,0,1,1.442-.377h.607c.228,0,.379.151.607.226a3.3,3.3,0,0,1,.531.453,6.627,6.627,0,0,1,.455.754A3.558,3.558,0,0,1,51.926.277,3.223,3.223,0,0,1,53.443-.1a2.577,2.577,0,0,1,2.049.83,3.079,3.079,0,0,1,.683,2.112v4.3H55.113V3.3a3.2,3.2,0,0,0-.455-1.811A1.583,1.583,0,0,0,53.216.805c-.683,0-.683,0-.911.226a2.3,2.3,0,0,0-.607.6,2.781,2.781,0,0,0-.379.83c0,.3-.076.6-.076.981V7.218H50.18V3.069a3.092,3.092,0,0,0-.076-.9,2.2,2.2,0,0,0-.228-.754,1.019,1.019,0,0,0-.531-.453A2.742,2.742,0,0,0,48.51.806a1.375,1.375,0,0,0-.759.151,2.091,2.091,0,0,0-.683.528,1.8,1.8,0,0,0-.455.83,3.11,3.11,0,0,0-.152,1.207V7.143H45.4V.126h.986V1.333h0A2.831,2.831,0,0,1,47.3.353Z" transform="translate(-10.95 0.1)" fill="#fff"/>
    </g>
  </g>
  <g id="Component_71_3" data-name="Component 71 – 3">
    <g id="Camada_1">
      <g id="Group_184" data-name="Group 184">
        <g id="Group_182" data-name="Group 182">
          <path id="Path_2250" data-name="Path 2250" d="M25.2,25.3V60.459H60.119V25.3ZM42.66,59.607A16.728,16.728,0,1,1,59.273,42.88,16.659,16.659,0,0,1,42.66,59.607Z" transform="translate(-17.301 -17.315)" fill="#fff"/>
          <g id="Group_175" data-name="Group 175" transform="translate(0.188)">
            <path id="Path_2251" data-name="Path 2251" d="M.6,0V6.659H3.923A3.33,3.33,0,1,1,7.245,3.345,3.316,3.316,0,0,1,3.923,6.691H7.245V0Z" transform="translate(-0.6)" fill="#fff"/>
            <path id="Path_2507" data-name="Path 2507" d="M.6,0V6.659H3.923A3.33,3.33,0,1,1,7.245,3.345,3.316,3.316,0,0,1,3.923,6.691H7.245V0Z" transform="translate(-0.599 9)" fill="#fff"/>
            <path id="Path_2509" data-name="Path 2509" d="M.6,0V6.659H3.923A3.33,3.33,0,1,1,7.245,3.345,3.316,3.316,0,0,1,3.923,6.691H7.245V0Z" transform="translate(-0.601 35)" fill="#fff"/>
            <path id="Path_2252" data-name="Path 2252" d="M5.982,3A2.4,2.4,0,1,0,8.365,5.4,2.389,2.389,0,0,0,5.982,3Z" transform="translate(-2.66 -2.053)" fill="#fff"/>
            <path id="Path_2506" data-name="Path 2506" d="M5.982,3A2.4,2.4,0,1,0,8.365,5.4,2.389,2.389,0,0,0,5.982,3Z" transform="translate(-2.659 6.947)" fill="#fff"/>
            <path id="Path_2508" data-name="Path 2508" d="M5.982,3A2.4,2.4,0,1,0,8.365,5.4,2.389,2.389,0,0,0,5.982,3Z" transform="translate(-2.661 32.947)" fill="#fff"/>
          </g>
          <path id="Path_2255" data-name="Path 2255" d="M0,62.991H3.323a3.346,3.346,0,1,1,3.323-3.346,3.316,3.316,0,0,1-3.323,3.346H6.645V56.332H0Z" transform="translate(0 -38.531)" fill="#fff"/>
          <path id="Path_2256" data-name="Path 2256" d="M5.382,59.3a2.4,2.4,0,1,0,2.382,2.4A2.389,2.389,0,0,0,5.382,59.3Z" transform="translate(-2.061 -40.584)" fill="#fff"/>
          <path id="Path_2257" data-name="Path 2257" d="M0,91.191H3.323a3.346,3.346,0,1,1,3.323-3.346,3.336,3.336,0,0,1-3.323,3.346H6.645V84.532H0Z" transform="translate(0 -57.831)" fill="#fff"/>
          <path id="Path_2258" data-name="Path 2258" d="M5.382,87.5a2.4,2.4,0,1,0,2.382,2.4A2.389,2.389,0,0,0,5.382,87.5Z" transform="translate(-2.061 -59.884)" fill="#fff"/>
          <g id="Group_177" data-name="Group 177" transform="translate(17.742)">
            <path id="Path_2261" data-name="Path 2261" d="M56.6,0V3.345a3.323,3.323,0,1,1,6.645,0,3.323,3.323,0,1,1-6.645,0V6.691h6.614V0Z" transform="translate(-56.6)" fill="#fff"/>
            <path id="Path_2262" data-name="Path 2262" d="M61.982,7.8A2.4,2.4,0,1,0,59.6,5.4,2.389,2.389,0,0,0,61.982,7.8Z" transform="translate(-58.66 -2.053)" fill="#fff"/>
          </g>
          <g id="Group_178" data-name="Group 178" transform="translate(8.965)">
            <path id="Path_2263" data-name="Path 2263" d="M28.6,0V3.345a3.323,3.323,0,1,1,6.645,0,3.323,3.323,0,1,1-6.645,0V6.691h6.614V0Z" transform="translate(-28.6)" fill="#fff"/>
            <path id="Path_2264" data-name="Path 2264" d="M33.982,7.8A2.4,2.4,0,1,0,31.6,5.4,2.389,2.389,0,0,0,33.982,7.8Z" transform="translate(-30.66 -2.053)" fill="#fff"/>
          </g>
          <g id="Group_179" data-name="Group 179" transform="translate(0.188 44.438)">
            <path id="Path_2265" data-name="Path 2265" d="M.6,147.491H3.923a3.346,3.346,0,1,1,3.323-3.346,3.336,3.336,0,0,1-3.323,3.346H7.245v-6.659H.6Z" transform="translate(-0.6 -140.8)" fill="#fff"/>
            <path id="Path_2266" data-name="Path 2266" d="M5.982,143.8a2.4,2.4,0,1,0,2.382,2.4,2.389,2.389,0,0,0-2.382-2.4Z" transform="translate(-2.66 -142.853)" fill="#fff"/>
            <path id="Path_2267" data-name="Path 2267" d="M112.6,140.9v3.345a3.323,3.323,0,1,1,3.323,3.345,3.336,3.336,0,0,1-3.323-3.345v3.345h6.614v-6.659H112.6Z" transform="translate(-77.492 -140.868)" fill="#fff"/>
            <path id="Path_2268" data-name="Path 2268" d="M117.982,148.6a2.4,2.4,0,1,0-2.382-2.4,2.389,2.389,0,0,0,2.382,2.4Z" transform="translate(-79.552 -142.853)" fill="#fff"/>
            <path id="Path_2269" data-name="Path 2269" d="M84.6,144.145a3.323,3.323,0,1,1,3.323,3.346,3.336,3.336,0,0,1-3.323-3.346v3.346h6.614v-6.659H84.6v3.314Z" transform="translate(-58.269 -140.8)" fill="#fff"/>
            <path id="Path_2270" data-name="Path 2270" d="M89.982,148.6a2.4,2.4,0,1,0-2.382-2.4A2.389,2.389,0,0,0,89.982,148.6Z" transform="translate(-60.329 -142.853)" fill="#fff"/>
            <path id="Path_2271" data-name="Path 2271" d="M56.6,144.145a3.323,3.323,0,1,1,3.323,3.346,3.336,3.336,0,0,1-3.323-3.346v3.346h6.614v-6.659H56.6v3.314Z" transform="translate(-39.046 -140.8)" fill="#fff"/>
            <path id="Path_2272" data-name="Path 2272" d="M61.982,148.6a2.4,2.4,0,1,0-2.382-2.4A2.389,2.389,0,0,0,61.982,148.6Z" transform="translate(-41.106 -142.853)" fill="#fff"/>
            <path id="Path_2273" data-name="Path 2273" d="M28.6,144.145a3.323,3.323,0,1,1,3.323,3.346,3.336,3.336,0,0,1-3.323-3.346v3.346h6.614v-6.659H28.6v3.314Z" transform="translate(-19.823 -140.8)" fill="#fff"/>
            <path id="Path_2274" data-name="Path 2274" d="M33.982,148.6a2.4,2.4,0,1,0-2.382-2.4A2.389,2.389,0,0,0,33.982,148.6Z" transform="translate(-21.883 -142.853)" fill="#fff"/>
          </g>
          <g id="Group_180" data-name="Group 180" transform="translate(26.519)">
            <path id="Path_2275" data-name="Path 2275" d="M112.6,3.345a3.323,3.323,0,1,1,6.645,0,3.323,3.323,0,1,1-6.645,0V6.691h6.614V0H112.6V3.345Z" transform="translate(-103.823)" fill="#fff"/>
            <path id="Path_2276" data-name="Path 2276" d="M117.982,7.8A2.4,2.4,0,1,0,115.6,5.4a2.389,2.389,0,0,0,2.382,2.4Z" transform="translate(-105.883 -2.053)" fill="#fff"/>
            <path id="Path_2277" data-name="Path 2277" d="M84.6,3.345a3.323,3.323,0,1,1,6.645,0,3.323,3.323,0,1,1-6.645,0V6.691h6.614V0H84.6Z" transform="translate(-84.6)" fill="#fff"/>
            <path id="Path_2278" data-name="Path 2278" d="M89.982,7.8A2.4,2.4,0,1,0,87.6,5.4,2.389,2.389,0,0,0,89.982,7.8Z" transform="translate(-86.66 -2.053)" fill="#fff"/>
            <path id="Path_2279" data-name="Path 2279" d="M140.6,0V6.659h3.323a3.33,3.33,0,1,1,3.323-3.314,3.316,3.316,0,0,1-3.323,3.345h3.323V0h-6.614Z" transform="translate(-123.046)" fill="#fff"/>
            <path id="Path_2280" data-name="Path 2280" d="M145.982,3a2.4,2.4,0,1,0,2.382,2.4A2.389,2.389,0,0,0,145.982,3Z" transform="translate(-125.106 -2.053)" fill="#fff"/>
          </g>
          <g id="Group_181" data-name="Group 181" transform="translate(43.884 8.9)">
            <path id="Path_2281" data-name="Path 2281" d="M140,31.545a3.323,3.323,0,1,1,3.323,3.346h3.323V28.2h-6.614v6.659h3.323a3.336,3.336,0,0,1-3.323-3.345Z" transform="translate(-140 -28.2)" fill="#fff"/>
            <path id="Path_2282" data-name="Path 2282" d="M145.382,31.1a2.4,2.4,0,1,0,2.382,2.4A2.389,2.389,0,0,0,145.382,31.1Z" transform="translate(-142.06 -30.185)" fill="#fff"/>
            <path id="Path_2283" data-name="Path 2283" d="M140,59.645a3.323,3.323,0,1,1,3.323,3.346h3.323V56.332h-6.614v6.659h3.323a3.336,3.336,0,0,1-3.323-3.346Z" transform="translate(-140 -47.431)" fill="#fff"/>
            <path id="Path_2284" data-name="Path 2284" d="M145.382,59.3a2.4,2.4,0,1,0,2.382,2.4A2.389,2.389,0,0,0,145.382,59.3Z" transform="translate(-142.06 -49.484)" fill="#fff"/>
            <path id="Path_2285" data-name="Path 2285" d="M140,87.845a3.323,3.323,0,1,1,3.323,3.346h3.323V84.532h-6.614v6.659h3.323a3.336,3.336,0,0,1-3.323-3.346Z" transform="translate(-140 -66.731)" fill="#fff"/>
            <path id="Path_2286" data-name="Path 2286" d="M145.382,87.5a2.4,2.4,0,1,0,2.382,2.4A2.389,2.389,0,0,0,145.382,87.5Z" transform="translate(-142.06 -68.784)" fill="#fff"/>
            <path id="Path_2287" data-name="Path 2287" d="M140,116.045a3.323,3.323,0,1,1,3.323,3.345h3.323v-6.659h-6.614v6.659h3.323a3.336,3.336,0,0,1-3.323-3.345Z" transform="translate(-140 -86.031)" fill="#fff"/>
            <path id="Path_2288" data-name="Path 2288" d="M145.382,115.7a2.4,2.4,0,1,0,2.382,2.4A2.389,2.389,0,0,0,145.382,115.7Z" transform="translate(-142.06 -88.084)" fill="#fff"/>
            <path id="Path_2289" data-name="Path 2289" d="M140.6,140.832v6.659h3.323a3.346,3.346,0,1,1,3.323-3.346,3.336,3.336,0,0,1-3.323,3.346h3.323v-6.659H140.6Z" transform="translate(-140.412 -105.262)" fill="#fff"/>
            <path id="Path_2290" data-name="Path 2290" d="M145.982,143.8a2.4,2.4,0,1,0,2.382,2.4A2.389,2.389,0,0,0,145.982,143.8Z" transform="translate(-142.472 -107.315)" fill="#fff"/>
          </g>
        </g>
        <g id="Group_183-2" data-name="Group 183" transform="translate(12.989 12.876)">
          <ellipse id="Ellipse_5238-2" data-name="Ellipse 5238" cx="4.329" cy="2.519" rx="4.329" ry="2.519" transform="translate(11.332 20.984) rotate(-25)" fill="#fff"/>
          <ellipse id="Ellipse_5239-2" data-name="Ellipse 5239" cx="4.329" cy="2.519" rx="4.329" ry="2.519" transform="translate(3.32 3.674) rotate(-25)" fill="#fff"/>
          <ellipse id="Ellipse_5240-2" data-name="Ellipse 5240" cx="2.519" cy="4.336" rx="2.519" ry="4.336" transform="matrix(0.574, -0.819, 0.819, 0.574, 12.769, 4.492)" fill="#fff"/>
          <ellipse id="Ellipse_5241-2" data-name="Ellipse 5241" cx="4.354" cy="2.505" rx="4.354" ry="2.505" transform="translate(0 16.064) rotate(-85)" fill="#fff"/>
          <ellipse id="Ellipse_5242-2" data-name="Ellipse 5242" cx="4.354" cy="2.505" rx="4.354" ry="2.505" transform="translate(18.916 17.734) rotate(-85)" fill="#fff"/>
          <ellipse id="Ellipse_5243-2" data-name="Ellipse 5243" cx="2.519" cy="4.336" rx="2.519" ry="4.336" transform="matrix(0.574, -0.819, 0.819, 0.574, 1.944, 20.162)" fill="#fff"/>
        </g>
      </g>
    </g>
  </g>
</svg>
