<svg xmlns="http://www.w3.org/2000/svg" xmlns:xlink="http://www.w3.org/1999/xlink" width="42" height="42" viewBox="0 0 42 42"><defs><linearGradient id="a" x1="1.172" y1="0.094" x2="-0.13" y2="0.168" gradientUnits="objectBoundingBox"><stop offset="0" stop-color="#0086ff"/><stop offset="1" stop-color="#e6007a"/></linearGradient></defs><g transform="translate(-371 21)"><g transform="translate(5578 14689)"><rect width="42" height="42" rx="21" transform="translate(-5207 -14710)" fill="url(#a)"/><circle cx="20" cy="20" r="20" transform="translate(-5206 -14709)"/></g><path d="M10.449,8.55a.921.921,0,1,1-.918-1A.959.959,0,0,1,10.449,8.55Zm-4.2-1a1,1,0,0,0,0,2,.959.959,0,0,0,.918-1A.953.953,0,0,0,6.246,7.551Zm9.5-5.7V18c-2.267-2-1.542-1.34-4.176-3.789l.477,1.665H1.845A1.849,1.849,0,0,1,0,14.022V1.854A1.849,1.849,0,0,1,1.845,0h12.06A1.849,1.849,0,0,1,15.75,1.854Zm-2.565,8.532a12.052,12.052,0,0,0-1.3-5.247A4.451,4.451,0,0,0,9.36,4.194l-.126.144a5.99,5.99,0,0,1,2.241,1.143A7.647,7.647,0,0,0,4.752,5.22c-.333.153-.531.261-.531.261A6.072,6.072,0,0,1,6.588,4.3L6.5,4.194a4.451,4.451,0,0,0-2.529.945,12.052,12.052,0,0,0-1.3,5.247,3.263,3.263,0,0,0,2.745,1.368s.333-.4.6-.747A2.8,2.8,0,0,1,4.446,9.945c.132.093.351.213.369.225a6.56,6.56,0,0,0,5.616.315,5.15,5.15,0,0,0,1.035-.531,2.84,2.84,0,0,1-1.629,1.071c.27.342.594.729.594.729A3.29,3.29,0,0,0,13.185,10.386Z" transform="translate(384.125 -8.5)" fill="#fff"/></g></svg>