<svg xmlns="http://www.w3.org/2000/svg" xmlns:xlink="http://www.w3.org/1999/xlink" width="42" height="42" viewBox="0 0 42 42"><defs><linearGradient id="a" x1="1.172" y1="0.094" x2="-0.13" y2="0.168" gradientUnits="objectBoundingBox"><stop offset="0" stop-color="#0086ff"/><stop offset="1" stop-color="#e6007a"/></linearGradient></defs><g transform="translate(-429 21)"><g transform="translate(5636 14689)"><rect width="42" height="42" rx="21" transform="translate(-5207 -14710)" fill="url(#a)"/><circle cx="20" cy="20" r="20" transform="translate(-5206 -14709)"/></g><path d="M14.521,2.25H1.743A1.743,1.743,0,0,0,0,3.993V16.771a1.743,1.743,0,0,0,1.743,1.743H14.521a1.743,1.743,0,0,0,1.743-1.743V3.993A1.743,1.743,0,0,0,14.521,2.25ZM12.746,8.015c.007.1.007.207.007.309A6.728,6.728,0,0,1,5.979,15.1,6.743,6.743,0,0,1,2.323,14.03a5.016,5.016,0,0,0,.574.029,4.774,4.774,0,0,0,2.955-1.016,2.384,2.384,0,0,1-2.225-1.652A2.566,2.566,0,0,0,4.7,11.347,2.381,2.381,0,0,1,2.8,9.01V8.981a2.379,2.379,0,0,0,1.075.3A2.376,2.376,0,0,1,2.81,7.3a2.351,2.351,0,0,1,.323-1.2,6.76,6.76,0,0,0,4.908,2.49A2.386,2.386,0,0,1,12.1,6.414a4.665,4.665,0,0,0,1.51-.574,2.375,2.375,0,0,1-1.046,1.311,4.738,4.738,0,0,0,1.372-.37A5.012,5.012,0,0,1,12.746,8.015Z" transform="translate(441.868 -10.381)" fill="#fff"/></g></svg>