<?xml version="1.0" standalone="no"?>
<!DOCTYPE svg PUBLIC "-//W3C//DTD SVG 20010904//EN"
 "http://www.w3.org/TR/2001/REC-SVG-20010904/DTD/svg10.dtd">
<svg version="1.0" xmlns="http://www.w3.org/2000/svg"
 width="257.000000pt" height="257.000000pt" viewBox="0 0 257.000000 257.000000"
 preserveAspectRatio="xMidYMid meet">
<metadata>
Created by potrace 1.14, written by Peter Selinger 2001-2017
</metadata>
<g transform="translate(0.000000,257.000000) scale(0.100000,-0.100000)"
fill="#000000" stroke="none">
<path d="M10 2503 l0 -66 23 43 c16 30 37 51 67 67 l43 23 -66 0 -67 0 0 -67z"/>
<path d="M228 2563 c29 -6 102 -77 102 -99 0 -8 4 -13 8 -10 4 2 8 29 7 58 l0
53 -70 1 c-38 1 -60 0 -47 -3z"/>
<path d="M450 2503 c1 -65 1 -67 14 -38 16 36 61 80 96 94 20 8 13 10 -42 10
l-68 1 0 -67z"/>
<path d="M668 2563 c24 -5 89 -64 108 -98 9 -16 11 -8 10 42 l-1 63 -70 -1
c-38 -1 -60 -4 -47 -6z"/>
<path d="M899 2568 c-1 -2 -2 -32 -3 -67 l-3 -64 18 34 c20 39 42 61 84 83
l30 16 -62 0 c-35 0 -63 -1 -64 -2z"/>
<path d="M1115 2559 c38 -11 83 -53 101 -93 13 -30 13 -29 14 37 l0 67 -72 -1
c-59 -1 -67 -2 -43 -10z"/>
<path d="M1339 2548 c-3 -13 -1 -41 2 -63 3 -22 7 -33 8 -24 2 26 40 68 79 89
l37 19 -61 1 c-56 0 -62 -2 -65 -22z"/>
<path d="M1581 2547 c31 -16 51 -36 67 -67 l22 -44 0 67 0 67 -67 0 -66 0 44
-23z"/>
<path d="M1779 2560 c0 -5 -1 -23 -1 -40 0 -86 0 -87 25 -39 16 31 36 51 67
67 l44 22 -67 0 c-37 0 -67 -4 -68 -10z"/>
<path d="M1995 2563 c34 -8 81 -50 99 -87 9 -20 18 -36 19 -36 2 0 0 93 -2
123 -1 4 -31 6 -68 6 -38 -1 -59 -4 -48 -6z"/>
<path d="M2220 2503 l0 -66 23 43 c16 30 37 51 67 67 l43 23 -66 0 -67 0 0
-67z"/>
<path d="M2455 2554 c42 -22 64 -44 84 -82 l17 -33 -1 66 0 65 -65 0 -65 0 30
-16z"/>
<path d="M145 2514 c-128 -43 -107 -220 26 -230 108 -7 166 130 86 204 -36 34
-68 42 -112 26z"/>
<path d="M554 2501 c-82 -50 -64 -180 30 -211 54 -18 105 2 136 53 24 39 25
68 4 113 -29 62 -109 83 -170 45z"/>
<path d="M998 2502 c-80 -49 -69 -172 18 -208 105 -44 201 65 149 166 -29 56
-112 77 -167 42z"/>
<path d="M1436 2499 c-80 -63 -60 -184 34 -209 51 -14 83 -5 120 33 25 26 30
39 30 80 0 44 -4 54 -36 83 -29 28 -43 34 -78 34 -29 0 -52 -7 -70 -21z"/>
<path d="M1891 2507 c-98 -50 -75 -201 33 -221 76 -14 141 43 139 123 0 38 -6
49 -36 78 -40 36 -90 44 -136 20z"/>
<path d="M2318 2497 c-58 -49 -65 -117 -18 -171 73 -82 205 -35 205 75 0 20
-6 48 -14 61 -30 58 -124 77 -173 35z"/>
<path d="M1777 2317 c1 -34 2 -66 2 -72 1 -5 26 -10 56 -11 55 0 72 9 36 21
-27 8 -81 72 -81 95 0 10 -3 21 -7 23 -5 3 -7 -23 -6 -56z"/>
<path d="M11 2308 l-1 -68 68 1 c58 1 63 2 35 10 -34 10 -83 63 -95 101 -3 13
-6 -6 -7 -44z"/>
<path d="M2220 2309 c0 -75 6 -80 85 -68 22 3 34 7 27 8 -27 3 -75 48 -93 86
l-19 40 0 -66z"/>
<path d="M330 2342 c0 -22 -42 -67 -80 -87 -17 -9 -30 -17 -30 -18 0 -2 28 -3
62 -2 l63 1 0 62 c1 34 -3 62 -7 62 -4 0 -8 -8 -8 -18z"/>
<path d="M453 2300 l2 -64 61 -2 62 -1 -47 31 c-25 17 -54 47 -63 66 l-18 35
3 -65z"/>
<path d="M765 2324 c-21 -39 -82 -87 -98 -77 -6 3 -7 2 -4 -3 4 -8 91 -11 117
-5 4 1 9 121 5 121 0 0 -9 -16 -20 -36z"/>
<path d="M1222 2351 c-3 -27 -55 -83 -88 -97 -19 -8 -34 -15 -34 -17 0 -1 28
-2 62 -2 l63 1 3 32 c2 18 1 47 -1 65 -2 17 -5 26 -5 18z"/>
<path d="M1339 2323 c-2 -21 -2 -50 1 -63 5 -23 10 -25 58 -26 28 -1 52 2 52
5 0 4 -16 15 -35 25 -20 11 -42 35 -54 58 l-19 39 -3 -38z"/>
<path d="M1660 2346 c0 -23 -51 -78 -87 -92 -18 -8 -33 -15 -33 -17 0 -1 29
-2 65 -2 l65 -1 0 63 c0 35 -2 63 -5 63 -3 0 -5 -6 -5 -14z"/>
<path d="M2087 2320 c-12 -26 -31 -45 -60 -59 -23 -12 -35 -21 -27 -22 93 -7
108 -5 112 15 2 12 1 40 -2 62 l-5 42 -18 -38z"/>
<path d="M2534 2325 c-16 -34 -61 -75 -82 -75 -6 0 -13 -4 -16 -8 -4 -7 56 -9
109 -3 9 1 17 121 8 121 -1 0 -10 -16 -19 -35z"/>
<path d="M894 2290 c0 -27 4 -51 10 -53 9 -3 91 -1 106 2 3 1 -10 9 -29 18
-18 9 -43 31 -55 50 -11 18 -23 33 -26 33 -3 0 -5 -22 -6 -50z"/>
<path d="M399 2148 c-1 -30 -1 -1709 0 -1725 1 -10 184 -13 880 -13 l879 0 0
880 0 880 -879 0 -879 0 -1 -22z m1026 -33 c526 -99 828 -653 625 -1146 -101
-243 -308 -421 -571 -490 -115 -30 -290 -30 -404 0 -299 79 -527 305 -607 600
-30 110 -30 315 1 426 101 372 447 632 826 619 55 -2 114 -6 130 -9z"/>
<path d="M1080 1854 c-167 -45 -269 -196 -174 -258 107 -71 360 48 369 173 6
77 -82 115 -195 85z"/>
<path d="M1385 1815 c-91 -90 84 -295 253 -295 168 0 118 201 -73 291 -79 38
-145 39 -180 4z"/>
<path d="M795 1542 c-39 -8 -85 -64 -105 -128 -37 -120 -6 -259 63 -292 135
-65 234 250 124 390 -17 21 -56 36 -82 30z"/>
<path d="M1693 1423 c-106 -117 -76 -393 43 -393 130 0 194 279 92 396 -43 49
-88 48 -135 -3z"/>
<path d="M861 1043 c-71 -37 -62 -122 21 -206 105 -105 262 -135 302 -58 38
72 -38 187 -161 247 -70 35 -119 40 -162 17z"/>
<path d="M1480 991 c-36 -11 -90 -40 -128 -69 -73 -55 -99 -128 -62 -175 19
-24 39 -32 105 -41 11 -2 44 3 74 11 140 37 242 156 201 234 -23 42 -117 62
-190 40z"/>
<path d="M4 2121 c-2 -2 -4 -32 -4 -65 l0 -61 23 40 c12 22 37 49 54 60 18 11
32 23 33 26 0 6 -99 7 -106 0z"/>
<path d="M214 2118 c-3 -4 3 -8 14 -8 23 0 77 -50 87 -80 4 -12 10 -19 13 -15
8 8 10 105 3 106 -29 5 -113 3 -117 -3z"/>
<path d="M2214 2121 c-2 -2 -4 -32 -4 -65 l0 -61 17 33 c17 36 67 82 88 82 8
0 16 3 18 8 5 7 -111 11 -119 3z"/>
<path d="M2451 2111 c37 -24 79 -70 79 -86 0 -7 4 -16 8 -19 6 -4 9 90 3 114
0 3 -26 5 -58 6 -54 0 -55 0 -32 -15z"/>
<path d="M114 2064 c-58 -28 -81 -103 -49 -164 30 -58 119 -79 169 -39 76 60
66 169 -19 205 -43 18 -62 17 -101 -2z"/>
<path d="M2324 2064 c-38 -18 -64 -62 -64 -106 2 -114 146 -160 217 -68 39 50
19 134 -40 170 -38 24 -71 25 -113 4z"/>
<path d="M0 1858 l0 -66 66 -1 67 -1 -44 23 c-29 16 -50 37 -66 67 l-23 43 0
-65z"/>
<path d="M317 1888 c-16 -37 -38 -59 -82 -83 -30 -15 -30 -15 35 -13 l65 3 0
63 c0 34 -1 62 -2 62 -2 0 -9 -15 -16 -32z"/>
<path d="M2211 1859 l-1 -66 67 -1 c66 -1 66 -1 37 14 -41 22 -74 54 -89 89
-13 29 -13 28 -14 -36z"/>
<path d="M2510 1859 c-18 -23 -47 -47 -64 -55 -30 -13 -29 -14 34 -11 l65 2 1
53 c0 28 0 52 -1 52 -1 0 -16 -18 -35 -41z"/>
<path d="M0 1613 l0 -66 23 43 c16 30 37 51 67 67 l43 23 -66 0 -67 0 0 -67z"/>
<path d="M235 1666 c29 -13 67 -51 91 -91 8 -15 10 -6 9 41 l-1 59 -64 2 c-62
3 -64 2 -35 -11z"/>
<path d="M2210 1613 l0 -66 23 43 c16 30 37 51 67 67 l43 23 -66 0 -67 0 0
-67z"/>
<path d="M2450 1662 c19 -9 48 -35 65 -58 l31 -41 0 59 -1 58 -65 0 -65 0 35
-18z"/>
<path d="M2327 1618 c-47 -24 -71 -69 -64 -120 15 -113 158 -142 217 -45 62
100 -49 219 -153 165z"/>
<path d="M97 1607 c-36 -28 -58 -92 -45 -127 35 -94 154 -116 209 -38 28 39
33 82 14 122 -31 65 -123 87 -178 43z"/>
<path d="M3 1415 l2 -70 62 -1 c35 0 63 1 63 3 0 1 -15 9 -34 17 -35 14 -80
66 -89 101 -3 11 -4 -11 -4 -50z"/>
<path d="M322 1453 c-12 -35 -44 -68 -82 -88 -17 -9 -30 -17 -30 -18 0 -2 28
-3 62 -2 l62 0 1 68 c1 37 1 67 -1 67 -1 0 -6 -12 -12 -27z"/>
<path d="M2210 1417 c0 -37 3 -68 8 -68 4 -1 35 -2 69 -3 l63 -2 -47 25 c-33
18 -54 39 -70 70 l-23 44 0 -66z"/>
<path d="M2535 1451 c-8 -26 -59 -78 -84 -86 -12 -3 -21 -10 -21 -13 0 -9 110
-11 111 -3 3 21 6 121 4 121 -2 0 -6 -8 -10 -19z"/>
<path d="M10 1232 c-5 -2 -10 -31 -10 -65 l0 -62 16 30 c20 39 52 73 76 81 32
10 19 19 -27 19 -25 0 -49 -1 -55 -3z"/>
<path d="M220 1228 c0 -5 6 -8 13 -8 19 0 73 -51 81 -77 4 -13 11 -23 15 -23
9 0 8 96 -1 105 -10 10 -108 12 -108 3z"/>
<path d="M2233 1232 c-21 -3 -23 -8 -22 -65 1 -61 1 -62 14 -31 16 36 69 84
92 84 9 0 14 3 10 6 -7 7 -62 10 -94 6z"/>
<path d="M2460 1230 l-35 -5 34 -14 c20 -9 45 -32 60 -57 l27 -42 0 58 c-1 55
-3 59 -26 62 -14 2 -41 1 -60 -2z"/>
<path d="M114 1174 c-58 -28 -81 -103 -49 -164 30 -58 119 -79 169 -39 76 60
66 169 -19 205 -43 18 -62 17 -101 -2z"/>
<path d="M2317 1167 c-102 -58 -57 -217 62 -217 62 0 106 40 116 104 16 96
-90 163 -178 113z"/>
<path d="M1 973 l-1 -73 68 0 67 0 -42 21 c-43 21 -70 53 -83 98 -6 18 -9 5
-9 -46z"/>
<path d="M317 996 c-17 -36 -68 -81 -102 -89 -11 -2 12 -5 50 -6 l70 -1 1 65
c1 36 0 65 -1 65 -1 0 -9 -15 -18 -34z"/>
<path d="M2211 968 l-1 -68 73 1 c40 1 62 4 49 7 -35 11 -91 60 -106 95 -14
32 -14 31 -15 -35z"/>
<path d="M2526 996 c-14 -35 -66 -80 -101 -89 -11 -2 12 -5 51 -6 l70 -1 0 65
c-1 36 -2 65 -3 65 -2 0 -9 -15 -17 -34z"/>
<path d="M0 722 l0 -67 21 43 c13 26 36 51 61 66 l40 24 -61 1 -61 1 0 -68z"/>
<path d="M238 773 c36 -17 82 -67 82 -88 0 -8 3 -16 8 -18 6 -4 8 65 3 109 -1
7 -26 12 -63 12 l-63 1 33 -16z"/>
<path d="M2212 722 c-2 -65 -1 -66 13 -37 20 42 35 59 74 83 l34 20 -60 1 -60
0 -1 -67z"/>
<path d="M2456 772 c29 -19 56 -48 79 -87 8 -13 10 -3 10 41 l0 59 -60 3 -60
3 31 -19z"/>
<path d="M102 720 c-63 -38 -71 -120 -18 -177 29 -32 40 -37 78 -37 55 -1 95
24 114 70 45 108 -73 205 -174 144z"/>
<path d="M2318 724 c-57 -30 -76 -119 -37 -168 25 -31 69 -56 101 -56 33 0 85
35 103 69 16 33 14 87 -6 119 -30 49 -107 66 -161 36z"/>
<path d="M2213 525 l2 -69 58 -1 c31 -1 57 3 57 7 0 4 -6 8 -13 8 -21 0 -75
53 -92 91 l-15 34 3 -70z"/>
<path d="M1 524 c-1 -60 0 -62 27 -65 15 -3 43 -1 62 2 19 4 27 7 18 8 -25 2
-77 50 -93 85 -13 31 -13 30 -14 -30z"/>
<path d="M2519 537 c-16 -26 -41 -50 -62 -61 -21 -9 -37 -18 -37 -19 0 -2 28
-2 62 -2 l62 1 1 62 c1 34 1 62 1 62 -1 0 -13 -20 -27 -43z"/>
<path d="M320 558 c0 -19 -67 -88 -85 -88 -8 0 -15 -4 -15 -8 0 -7 56 -8 106
-3 12 1 13 95 1 107 -4 4 -7 1 -7 -8z"/>
<path d="M10 280 c1 -63 1 -64 14 -35 12 29 51 67 90 90 13 7 2 10 -43 10
l-61 1 0 -66z"/>
<path d="M225 342 c2 -2 18 -11 37 -21 20 -11 41 -33 53 -59 11 -23 22 -41 25
-42 4 0 5 98 1 121 -1 4 -28 6 -60 5 -33 0 -58 -2 -56 -4z"/>
<path d="M454 341 c-2 -2 -4 -32 -4 -65 l0 -61 17 33 c15 31 49 64 89 88 14 8
6 10 -40 10 -32 -1 -60 -3 -62 -5z"/>
<path d="M684 336 c43 -26 68 -50 84 -83 l18 -35 0 63 -1 63 -59 1 c-46 1 -56
-1 -42 -9z"/>
<path d="M902 340 c-9 -7 -11 -100 -2 -100 3 0 13 12 21 27 8 14 32 38 55 53
l41 26 -54 0 c-30 0 -57 -3 -61 -6z"/>
<path d="M1126 332 c38 -19 84 -62 84 -79 0 -7 5 -13 11 -13 6 0 9 20 7 52
l-3 52 -64 2 c-62 1 -63 0 -35 -14z"/>
<path d="M1344 335 c-5 -11 -10 -115 -7 -115 2 0 11 17 22 38 19 36 42 57 90
77 21 9 14 11 -38 11 -35 0 -65 -5 -67 -11z"/>
<path d="M1565 335 c40 -23 78 -61 91 -90 13 -29 13 -28 14 33 0 34 -3 63 -7
63 -5 1 -32 2 -62 3 -41 1 -49 -1 -36 -9z"/>
<path d="M1797 342 c-10 -2 -17 -10 -18 -18 -2 -22 -1 -62 1 -86 2 -22 2 -22
13 4 17 38 47 69 81 83 l30 13 -46 3 c-24 2 -52 3 -61 1z"/>
<path d="M2224 341 c-2 -2 -4 -32 -4 -65 l1 -61 18 35 c21 40 43 61 84 82 27
14 26 14 -33 14 -34 0 -63 -3 -66 -5z"/>
<path d="M2456 332 c36 -19 57 -40 81 -79 l19 -31 0 59 c0 32 -3 59 -6 60 -3
1 -31 2 -64 3 -56 3 -57 2 -30 -12z"/>
<path d="M2027 319 c29 -14 48 -33 61 -60 l20 -40 4 56 c1 31 1 59 -1 61 -2 2
-32 4 -65 4 l-61 0 42 -21z"/>
<path d="M127 285 c-43 -22 -66 -56 -67 -97 0 -83 50 -133 128 -125 116 12
148 157 49 217 -38 24 -72 25 -110 5z"/>
<path d="M575 291 c-61 -26 -91 -110 -61 -169 46 -90 188 -77 217 20 15 48 5
85 -35 123 -34 32 -82 42 -121 26z"/>
<path d="M1002 280 c-32 -20 -62 -71 -62 -106 0 -32 33 -84 63 -99 84 -42 177
13 177 104 0 92 -101 150 -178 101z"/>
<path d="M1443 280 c-95 -57 -68 -199 41 -217 20 -3 49 0 66 7 90 37 94 172 6
214 -45 21 -74 20 -113 -4z"/>
<path d="M1910 293 c-39 -15 -68 -45 -77 -80 -13 -53 1 -97 41 -128 107 -81
243 50 170 163 -25 38 -92 60 -134 45z"/>
<path d="M2334 284 c-83 -41 -85 -167 -2 -210 66 -34 160 9 174 81 8 44 -18
100 -58 125 -39 24 -72 25 -114 4z"/>
<path d="M10 78 l0 -68 73 1 c51 0 64 3 46 9 -45 13 -77 40 -98 83 l-21 42 0
-67z"/>
<path d="M450 78 l0 -68 73 1 c57 1 66 3 43 9 -36 11 -84 56 -102 95 -13 29
-13 27 -14 -37z"/>
<path d="M767 106 c-17 -36 -68 -81 -102 -89 -11 -2 12 -5 50 -6 l70 -1 1 65
c0 36 0 65 -1 65 -1 0 -9 -15 -18 -34z"/>
<path d="M895 75 l0 -65 75 1 c41 1 64 4 50 6 -36 7 -87 49 -108 89 l-18 35 1
-66z"/>
<path d="M1220 127 c0 -21 -62 -89 -94 -103 -30 -13 -29 -13 36 -14 l68 0 -1
65 c-1 36 -3 65 -5 65 -2 0 -4 -6 -4 -13z"/>
<path d="M1645 98 c-14 -29 -34 -49 -64 -65 l-44 -23 66 0 67 0 0 65 c0 36 -1
65 -2 65 -2 -1 -12 -20 -23 -42z"/>
<path d="M1776 78 l1 -63 69 -3 69 -3 -45 23 c-33 17 -50 34 -65 65 -11 23
-22 42 -25 43 -3 0 -5 -28 -4 -62z"/>
<path d="M2545 121 c-11 -35 -48 -73 -89 -92 l-41 -19 70 2 69 3 1 63 c2 66 0
74 -10 43z"/>
<path d="M330 115 c0 -22 -59 -80 -95 -93 -26 -10 -21 -11 40 -9 l70 2 0 53
c1 29 -3 56 -7 58 -4 3 -8 -2 -8 -11z"/>
<path d="M1340 128 c-2 -8 -2 -77 -1 -103 1 -12 15 -15 69 -15 l67 0 -41 19
c-38 17 -73 54 -87 91 -3 8 -6 12 -7 8z"/>
<path d="M2101 119 c-2 -26 -40 -68 -79 -89 l-37 -19 61 -1 c70 0 75 7 63 85
-3 22 -7 33 -8 24z"/>
<path d="M2220 73 l0 -63 68 0 c64 1 66 1 37 14 -31 14 -74 56 -93 91 -9 16
-11 9 -12 -42z"/>
</g>
</svg>
