<?xml version="1.0" encoding="utf-8"?>
<!-- Generator: Adobe Illustrator 24.2.0, SVG Export Plug-In . SVG Version: 6.00 Build 0)  -->
<svg version="1.1" id="Calque_1" xmlns="http://www.w3.org/2000/svg" xmlns:xlink="http://www.w3.org/1999/xlink" x="0px" y="0px"
	 width="174px" height="78px" viewBox="0 0 174 78" style="enable-background:new 0 0 174 78;" xml:space="preserve">
<style type="text/css">
	.st0{fill-rule:evenodd;clip-rule:evenodd;fill:#00CCC0;}
</style>
<g>
	<g>
		<g>
			<path class="st0" d="M37.4,0c12,0,21.8,9.9,21.8,21.9C59.2,28.8,56,35,51,39c5,4,8.2,10.2,8.2,17.1c0,12.1-9.8,21.9-21.8,21.9H0
				V4.8c0-2.6,2.1-4.7,4.7-4.7h32.7V0z M37.4,43.7c-3.5,0-6.4,2.9-6.4,6.4V62c0,2.3-0.5,4.4-1.4,6.4h7.8c6.8,0,12.3-5.5,12.3-12.4
				c0-6.7-5.3-12.2-11.9-12.4C37.7,43.8,37.5,43.8,37.4,43.7L37.4,43.7z M37.4,9.5H9.5v59H15c3.5,0,6.4-2.9,6.4-6.4v-12
				c0-8.7,7.1-15.9,15.8-15.9h0.2h0.2c6.6-0.2,11.9-5.7,11.9-12.4C49.7,15.1,44.2,9.5,37.4,9.5z M142.6,53.3c1.6,0,3,0.4,4.2,1.2
				c0.3,0.2,0.6,0.6,0.6,1.2c0,0.8-0.6,1.3-1.4,1.3c-0.3,0-0.5-0.1-0.7-0.2c-1-0.6-1.9-0.9-2.8-0.9c-1.1,0-1.7,0.5-1.7,1.2l0,0
				c0,0.9,0.6,1.2,2.8,1.7c2.7,0.7,4.2,1.7,4.2,4l0,0c0,2.6-2,4.1-4.8,4.1c-1.7,0-3.5-0.5-5-1.6c-0.3-0.2-0.5-0.6-0.5-1.1
				c0-0.8,0.6-1.3,1.4-1.3c0.4,0,0.6,0.1,0.8,0.3c1,0.7,2.1,1.2,3.4,1.2c1.2,0,1.9-0.5,1.9-1.2l0,0c0-0.7-0.5-1.1-2.7-1.7
				c-2.7-0.7-4.4-1.4-4.4-4l0,0C137.9,54.9,139.9,53.3,142.6,53.3z M133.1,53.4c0.8,0,1.5,0.6,1.5,1.5v10.6c0,0.8-0.6,1.5-1.5,1.5
				s-1.5-0.6-1.5-1.5V54.8C131.6,54,132.3,53.4,133.1,53.4z M123.4,53.5c1.7,0,3,0.5,3.8,1.3c0.7,0.7,1.1,1.8,1.1,3l0,0
				c0,2.1-1,3.4-2.6,4l2,2.5c0.3,0.4,0.5,0.7,0.5,1.1c0,0.8-0.7,1.3-1.4,1.3c-0.7,0-1.1-0.3-1.4-0.8l-2.8-3.6h-2.3v2.9
				c0,0.8-0.6,1.5-1.5,1.5c-0.8,0-1.5-0.6-1.5-1.5V54.9c0-0.8,0.6-1.5,1.5-1.5h4.6V53.5z M108.2,53.3c0.8,0,1.4,0.4,1.7,1.2
				l4.6,10.5c0.1,0.2,0.1,0.4,0.1,0.6c0,0.8-0.6,1.4-1.4,1.4c-0.7,0-1.1-0.4-1.4-1l-0.9-2.1h-5.8l-0.9,2.2c-0.2,0.6-0.7,0.9-1.3,0.9
				c-0.8,0-1.3-0.6-1.3-1.4c0-0.2,0.1-0.4,0.2-0.6l4.6-10.5c0.3-0.7,0.9-1.2,1.7-1.2H108.2z M95.7,53.5c3.2,0,5.1,1.9,5.1,4.6l0,0
				c0,3.1-2.4,4.6-5.3,4.6h-2.2v2.6c0,0.8-0.6,1.5-1.5,1.5c-0.8,0-1.5-0.6-1.5-1.5V54.9c0-0.8,0.6-1.5,1.5-1.5L95.7,53.5z
				 M80.6,57.2c1.5,0,2.8,1.2,2.8,2.8l0,0c0,1.5-1.3,2.8-2.8,2.8c-1.5,0-2.8-1.2-2.8-2.8l0,0C77.8,58.5,79.1,57.2,80.6,57.2
				L80.6,57.2z M108.1,56.8l-1.8,4.4h3.7C109.9,61.1,108.1,56.8,108.1,56.8z M95.5,56.1h-2.2v4h2.3c1.5,0,2.3-0.9,2.3-2l0,0
				C97.9,56.8,96.9,56.1,95.5,56.1z M123.2,56.1h-2.9v3.8h2.9c1.4,0,2.2-0.8,2.2-1.9l0,0C125.5,56.7,124.6,56.1,123.2,56.1z
				 M172.5,30.6c0.8,0,1.5,0.6,1.5,1.5v6.1c0,4-2.2,6-5.8,6c-3.5,0-5.7-2-5.7-5.9v-6.2c0-0.8,0.6-1.5,1.5-1.5c0.8,0,1.5,0.6,1.5,1.5
				v6.1c0,2.1,1.1,3.3,2.9,3.3c1.8,0,2.8-1.1,2.8-3.2v-6.2C171.1,31.3,171.7,30.6,172.5,30.6z M97.4,30.5c0.8,0,1.4,0.4,1.7,1.2
				l4.6,10.5c0.1,0.2,0.2,0.4,0.2,0.6c0,0.8-0.6,1.4-1.4,1.4c-0.7,0-1.1-0.4-1.4-1l-0.9-2.1h-5.8l-0.9,2.2c-0.2,0.6-0.7,0.9-1.3,0.9
				c-0.8,0-1.3-0.6-1.3-1.4c0-0.2,0.1-0.4,0.2-0.6l4.6-10.5C96,31,96.6,30.5,97.4,30.5L97.4,30.5z M112.7,30.7c1.7,0,3,0.5,3.8,1.3
				c0.7,0.7,1.1,1.8,1.1,3l0,0c0,2.1-1,3.4-2.6,4l2,2.5c0.3,0.4,0.5,0.7,0.5,1.1c0,0.8-0.7,1.3-1.4,1.3c-0.7,0-1.1-0.3-1.4-0.8
				l-2.8-3.6h-2.3v3.1c0,0.8-0.6,1.5-1.5,1.5c-0.8,0-1.5-0.6-1.5-1.5V32.2c0-0.8,0.6-1.5,1.5-1.5H112.7z M126.8,30.7
				c1.7,0,3,0.5,3.9,1.3c0.7,0.7,1.1,1.8,1.1,3l0,0c0,2.1-1,3.4-2.6,4l2,2.5c0.3,0.4,0.5,0.7,0.5,1.1c0,0.8-0.7,1.3-1.4,1.3
				s-1.1-0.3-1.4-0.8l-2.8-3.6h-2.5v3.1c0,0.8-0.6,1.5-1.5,1.5c-0.8,0-1.5-0.6-1.5-1.5V32.2c0-0.8,0.6-1.5,1.5-1.5H126.8z
				 M153.8,30.5c0.8,0,1.4,0.4,1.7,1.2l4.6,10.5c0.1,0.2,0.1,0.4,0.1,0.6c0,0.8-0.6,1.4-1.4,1.4c-0.7,0-1.1-0.4-1.4-1l-0.9-2.1h-5.8
				l-0.9,2.2c-0.2,0.6-0.7,0.9-1.3,0.9c-0.8,0-1.3-0.6-1.3-1.4c0-0.2,0.1-0.4,0.2-0.6l4.6-10.5c0.3-0.7,0.9-1.2,1.7-1.2L153.8,30.5z
				 M83.6,30.7c1.5,0,2.7,0.4,3.5,1.2c0.6,0.6,0.9,1.3,0.9,2.2l0,0c0,1.5-0.8,2.3-1.7,2.8c1.5,0.6,2.5,1.5,2.5,3.2l0,0
				c0,2.4-2,3.6-4.9,3.6h-4.8c-0.8,0-1.5-0.6-1.5-1.5V32.2c0-0.8,0.6-1.5,1.5-1.5H83.6z M143.6,30.7c0.7,0,1.3,0.6,1.3,1.3
				s-0.6,1.3-1.3,1.3h-5.9V36h5c0.7,0,1.3,0.6,1.3,1.3c0,0.7-0.6,1.3-1.3,1.3h-5v2.8h6c0.7,0,1.3,0.6,1.3,1.3c0,0.7-0.6,1.3-1.3,1.3
				h-7.4c-0.8,0-1.5-0.6-1.5-1.5V32.2c0-0.8,0.6-1.5,1.5-1.5H143.6z M83.7,38.5h-3.4v2.9h3.5c1.3,0,2.1-0.5,2.1-1.4l0,0
				C85.8,39,85.2,38.5,83.7,38.5z M153.7,34.1l-1.8,4.4h3.7L153.7,34.1z M97.3,34.1l-1.8,4.4h3.7L97.3,34.1z M112.4,33.4h-2.9v3.8
				h2.9c1.4,0,2.2-0.8,2.2-1.9l0,0C114.7,34,113.8,33.4,112.4,33.4L112.4,33.4z M126.5,33.4h-2.9v3.8h2.9c1.4,0,2.2-0.8,2.2-1.9l0,0
				C128.8,34,127.9,33.4,126.5,33.4z M83.2,33.3h-2.9v2.8H83c1.3,0,2.1-0.4,2.1-1.4l0,0C85.1,33.8,84.4,33.3,83.2,33.3z M111.4,7.7
				c4,0,6.6,3.2,6.6,6.8l0,0c0,3.6-2.7,6.8-6.7,6.8c-4,0-6.6-3.2-6.6-6.8l0,0C104.8,11,107.4,7.7,111.4,7.7L111.4,7.7z M127.9,7.7
				c2.2,0,3.6,0.8,4.8,1.8c0.1,0.1,0.2,0.2,0.2,0.4c0,0.3-0.2,0.5-0.5,0.5c-0.1,0-0.3-0.1-0.3-0.1c-1.1-1-2.4-1.7-4.2-1.7
				c-3.2,0-5.6,2.6-5.6,5.9l0,0c0,3.3,2.4,5.9,5.6,5.9c1.8,0,3.1-0.6,4.3-1.8c0.1-0.1,0.2-0.2,0.3-0.2c0.2,0,0.5,0.2,0.5,0.5
				c0,0.2-0.1,0.3-0.2,0.3c-1.3,1.2-2.8,2.1-5,2.1c-3.8,0-6.6-3-6.6-6.8l0,0C121.3,10.9,124.1,7.7,127.9,7.7L127.9,7.7z M166.4,7.7
				c1.8,0,3,0.5,4.2,1.4c0.1,0.1,0.2,0.2,0.2,0.4c0,0.3-0.2,0.5-0.5,0.5c-0.1,0-0.2,0-0.3-0.1c-1.2-0.9-2.3-1.2-3.6-1.2
				c-1.9,0-3.2,1.1-3.2,2.5l0,0c0,1.4,0.7,2.2,3.8,2.9c3.1,0.6,4.3,1.7,4.3,3.6l0,0c0,2.1-1.8,3.6-4.4,3.6c-2,0-3.5-0.6-5-1.8
				c-0.1-0.1-0.2-0.2-0.2-0.4c0-0.3,0.2-0.5,0.5-0.5c0.1,0,0.2,0.1,0.3,0.1c1.3,1.2,2.6,1.7,4.5,1.7c2,0,3.3-1.1,3.3-2.6l0,0
				c0-1.4-0.7-2.2-3.7-2.8c-3.2-0.6-4.5-1.7-4.5-3.7l0,0C162.1,9.2,163.9,7.7,166.4,7.7L166.4,7.7z M102.2,7.8
				c0.3,0,0.5,0.2,0.5,0.5c0,0.1,0,0.1,0,0.2l-5.4,12.4c-0.1,0.3-0.3,0.4-0.6,0.4l0,0c-0.3,0-0.5-0.2-0.6-0.4L90.6,8.5
				c0-0.1,0-0.1,0-0.2c0-0.2,0.2-0.5,0.5-0.5c0.2,0,0.4,0.2,0.5,0.4l5,11.9l5.1-11.9C101.8,8,101.9,7.8,102.2,7.8z M83.4,7.8
				c0.3,0,0.5,0.2,0.7,0.5l5.6,12.3c0.1,0.1,0.1,0.2,0.1,0.3c0,0.2-0.2,0.5-0.5,0.5c-0.2,0-0.4-0.2-0.5-0.4l-1.5-3.4h-7.8L78,21
				c-0.1,0.2-0.2,0.4-0.5,0.4c-0.2,0-0.5-0.2-0.5-0.4c0-0.1,0-0.2,0.1-0.3l5.6-12.3C82.8,8,83,7.8,83.4,7.8L83.4,7.8z M141.8,7.8
				c0.3,0,0.5,0.2,0.7,0.5l5.6,12.3c0.1,0.1,0.1,0.2,0.1,0.3c0,0.2-0.2,0.5-0.5,0.5c-0.2,0-0.4-0.2-0.5-0.4l-1.6-3.5h-7.8l-1.5,3.4
				c-0.1,0.2-0.2,0.4-0.5,0.4c-0.2,0-0.5-0.2-0.5-0.4c0-0.1,0-0.2,0.1-0.3L141,8.3C141.2,8,141.4,7.8,141.8,7.8L141.8,7.8z
				 M158.9,7.9c0.2,0,0.5,0.2,0.5,0.5c0,0.2-0.2,0.5-0.5,0.5h-4.2v12c0,0.3-0.2,0.5-0.5,0.5s-0.5-0.2-0.5-0.5V8.8h-4.2
				c-0.2,0-0.5-0.2-0.5-0.5c0-0.2,0.2-0.5,0.5-0.5h9.4V7.9z M111.4,8.6c-3.3,0-5.6,2.6-5.6,5.9l0,0c0,3.3,2.4,5.9,5.6,5.9
				c3.3,0,5.6-2.6,5.6-5.9l0,0C117,11.4,114.6,8.6,111.4,8.6L111.4,8.6z M141.7,8.9l-3.5,7.6h7L141.7,8.9L141.7,8.9z M83.4,8.9
				l-3.5,7.6h7L83.4,8.9L83.4,8.9z"/>
		</g>
	</g>
</g>
</svg>
